G04 #@! TF.FileFunction,Soldermask,Bot*
%FSLAX46Y46*%
G04 Gerber Fmt 4.6, Leading zero omitted, Abs format (unit mm)*
G04 Created by KiCad (PCBNEW 4.0.6) date 07/26/18 14:24:44*
%MOMM*%
%LPD*%
G01*
G04 APERTURE LIST*
%ADD10C,0.100000*%
%ADD11C,0.150000*%
%ADD12O,3.300000X2.300000*%
%ADD13C,2.300000*%
%ADD14O,2.800000X2.300000*%
%ADD15C,2.100000*%
%ADD16R,1.500000X1.800000*%
%ADD17O,1.800000X1.200000*%
%ADD18R,1.800000X1.200000*%
%ADD19O,3.300000X2.100000*%
%ADD20C,1.900000*%
%ADD21R,2.298980X2.298980*%
%ADD22O,2.300000X3.300000*%
%ADD23R,2.000000X2.000000*%
%ADD24O,2.000000X2.000000*%
%ADD25C,2.800000*%
%ADD26O,2.100000X3.300000*%
%ADD27O,2.300000X2.800000*%
G04 APERTURE END LIST*
D10*
D11*
X113000000Y-61000000D02*
X67000000Y-61000000D01*
X67000000Y-58000000D02*
X113000000Y-58000000D01*
X60000000Y-61000000D02*
X64500000Y-61000000D01*
X60000000Y-58000000D02*
X64500000Y-58000000D01*
X60000000Y-54500000D02*
X60000000Y-58000000D01*
X60000000Y-41000000D02*
X60000000Y-52500000D01*
X60000000Y-33000000D02*
X60000000Y-39000000D01*
X56500000Y-33000000D02*
X56500000Y-39000000D01*
X56500000Y-52500000D02*
X56500000Y-41000000D01*
X56500000Y-65500000D02*
X56500000Y-54500000D01*
X56500000Y-81000000D02*
X56500000Y-67500000D01*
X60000000Y-67500000D02*
X60000000Y-86000000D01*
X60000000Y-61000000D02*
X60000000Y-65500000D01*
X113000000Y-89000000D02*
X67000000Y-89000000D01*
X67000000Y-86000000D02*
X113000000Y-86000000D01*
X60000000Y-86000000D02*
X65000000Y-86000000D01*
X60000000Y-89000000D02*
X65000000Y-89000000D01*
X67000000Y-86000000D02*
X67000000Y-89000000D01*
X65000000Y-86000000D02*
X65000000Y-89000000D01*
X56500000Y-67500000D02*
X60000000Y-67500000D01*
X56500000Y-65500000D02*
X60000000Y-65500000D01*
X67000000Y-61000000D02*
X67000000Y-58000000D01*
X64500000Y-58000000D02*
X64500000Y-61000000D01*
X56500000Y-54500000D02*
X60000000Y-54500000D01*
X56500000Y-52500000D02*
X60000000Y-52500000D01*
X56500000Y-41000000D02*
X60000000Y-41000000D01*
X56500000Y-39000000D02*
X60000000Y-39000000D01*
X113000000Y-33000000D02*
X60000000Y-33000000D01*
X113000000Y-33000000D02*
X113000000Y-58000000D01*
X113000000Y-61000000D02*
X113000000Y-86000000D01*
X60000000Y-114000000D02*
X113000000Y-114000000D01*
X60000000Y-89000000D02*
X60000000Y-114000000D01*
X113000000Y-89000000D02*
X113000000Y-114000000D01*
X31500000Y-33000000D02*
X56500000Y-33000000D01*
X31500000Y-34500000D02*
X31500000Y-33000000D01*
X31500000Y-81000000D02*
X56500000Y-81000000D01*
X31500000Y-80500000D02*
X31500000Y-81000000D01*
X31500000Y-80500000D02*
X31500000Y-34500000D01*
D12*
X88150000Y-38500000D03*
X88150000Y-52500000D03*
X110750000Y-52500000D03*
X110750000Y-38500000D03*
D13*
X105750000Y-48500000D03*
D14*
X105750000Y-51500000D03*
X105750000Y-39500000D03*
D13*
X105750000Y-42500000D03*
X105750000Y-45500000D03*
D15*
X90840000Y-56930000D03*
X93380000Y-56930000D03*
X95920000Y-56930000D03*
X98460000Y-56930000D03*
X101000000Y-56930000D03*
X103540000Y-56930000D03*
X106080000Y-56930000D03*
X108620000Y-56930000D03*
X108620000Y-34070000D03*
X106080000Y-34070000D03*
X103540000Y-34070000D03*
X101000000Y-34070000D03*
X98460000Y-34070000D03*
X95920000Y-34070000D03*
X93380000Y-34070000D03*
X90840000Y-34070000D03*
D16*
X66000000Y-56500000D03*
X68000000Y-56500000D03*
X70000000Y-56500000D03*
X72000000Y-56500000D03*
X74000000Y-56500000D03*
X76000000Y-56500000D03*
X78000000Y-56500000D03*
X80000000Y-56500000D03*
X80000000Y-40500000D03*
X78000000Y-40500000D03*
X76000000Y-40500000D03*
X74000000Y-40500000D03*
X72000000Y-40500000D03*
X70000000Y-40500000D03*
X68000000Y-40500000D03*
X66000000Y-40500000D03*
D15*
X69730000Y-35500000D03*
X72270000Y-35500000D03*
X67190000Y-35500000D03*
X74810000Y-35500000D03*
X64650000Y-35500000D03*
X77350000Y-35500000D03*
X62110000Y-35500000D03*
X79890000Y-35500000D03*
D17*
X62000000Y-54270000D03*
X62000000Y-55540000D03*
D18*
X62000000Y-53000000D03*
D19*
X110500000Y-49800000D03*
X110500000Y-41200000D03*
D20*
X110500000Y-47500000D03*
X110500000Y-43500000D03*
X110500000Y-45500000D03*
D21*
X91498740Y-45750000D03*
X101501260Y-45750000D03*
X101501260Y-42750000D03*
X91498740Y-42750000D03*
X101501260Y-49000000D03*
X91498740Y-49000000D03*
D12*
X88150000Y-66500000D03*
X88150000Y-80500000D03*
X110750000Y-80500000D03*
X110750000Y-66500000D03*
D13*
X105750000Y-76500000D03*
D14*
X105750000Y-79500000D03*
X105750000Y-67500000D03*
D13*
X105750000Y-70500000D03*
X105750000Y-73500000D03*
D15*
X90840000Y-84930000D03*
X93380000Y-84930000D03*
X95920000Y-84930000D03*
X98460000Y-84930000D03*
X101000000Y-84930000D03*
X103540000Y-84930000D03*
X106080000Y-84930000D03*
X108620000Y-84930000D03*
X108620000Y-62070000D03*
X106080000Y-62070000D03*
X103540000Y-62070000D03*
X101000000Y-62070000D03*
X98460000Y-62070000D03*
X95920000Y-62070000D03*
X93380000Y-62070000D03*
X90840000Y-62070000D03*
D16*
X66000000Y-84500000D03*
X68000000Y-84500000D03*
X70000000Y-84500000D03*
X72000000Y-84500000D03*
X74000000Y-84500000D03*
X76000000Y-84500000D03*
X78000000Y-84500000D03*
X80000000Y-84500000D03*
X80000000Y-68500000D03*
X78000000Y-68500000D03*
X76000000Y-68500000D03*
X74000000Y-68500000D03*
X72000000Y-68500000D03*
X70000000Y-68500000D03*
X68000000Y-68500000D03*
X66000000Y-68500000D03*
D15*
X69730000Y-63500000D03*
X72270000Y-63500000D03*
X67190000Y-63500000D03*
X74810000Y-63500000D03*
X64650000Y-63500000D03*
X77350000Y-63500000D03*
X62110000Y-63500000D03*
X79890000Y-63500000D03*
D17*
X62000000Y-82270000D03*
X62000000Y-83540000D03*
D18*
X62000000Y-81000000D03*
D19*
X110500000Y-77800000D03*
X110500000Y-69200000D03*
D20*
X110500000Y-75500000D03*
X110500000Y-71500000D03*
X110500000Y-73500000D03*
D21*
X91498740Y-73750000D03*
X101501260Y-73750000D03*
X101501260Y-70750000D03*
X91498740Y-70750000D03*
X101501260Y-77000000D03*
X91498740Y-77000000D03*
D12*
X88150000Y-94500000D03*
X88150000Y-108500000D03*
X110750000Y-108500000D03*
X110750000Y-94500000D03*
D13*
X105750000Y-104500000D03*
D14*
X105750000Y-107500000D03*
X105750000Y-95500000D03*
D13*
X105750000Y-98500000D03*
X105750000Y-101500000D03*
D15*
X90840000Y-112930000D03*
X93380000Y-112930000D03*
X95920000Y-112930000D03*
X98460000Y-112930000D03*
X101000000Y-112930000D03*
X103540000Y-112930000D03*
X106080000Y-112930000D03*
X108620000Y-112930000D03*
X108620000Y-90070000D03*
X106080000Y-90070000D03*
X103540000Y-90070000D03*
X101000000Y-90070000D03*
X98460000Y-90070000D03*
X95920000Y-90070000D03*
X93380000Y-90070000D03*
X90840000Y-90070000D03*
D16*
X66000000Y-112500000D03*
X68000000Y-112500000D03*
X70000000Y-112500000D03*
X72000000Y-112500000D03*
X74000000Y-112500000D03*
X76000000Y-112500000D03*
X78000000Y-112500000D03*
X80000000Y-112500000D03*
X80000000Y-96500000D03*
X78000000Y-96500000D03*
X76000000Y-96500000D03*
X74000000Y-96500000D03*
X72000000Y-96500000D03*
X70000000Y-96500000D03*
X68000000Y-96500000D03*
X66000000Y-96500000D03*
D15*
X69730000Y-91500000D03*
X72270000Y-91500000D03*
X67190000Y-91500000D03*
X74810000Y-91500000D03*
X64650000Y-91500000D03*
X77350000Y-91500000D03*
X62110000Y-91500000D03*
X79890000Y-91500000D03*
D17*
X62000000Y-110270000D03*
X62000000Y-111540000D03*
D18*
X62000000Y-109000000D03*
D19*
X110500000Y-105800000D03*
X110500000Y-97200000D03*
D20*
X110500000Y-103500000D03*
X110500000Y-99500000D03*
X110500000Y-101500000D03*
D21*
X91498740Y-101750000D03*
X101501260Y-101750000D03*
X101501260Y-98750000D03*
X91498740Y-98750000D03*
X101501260Y-105000000D03*
X91498740Y-105000000D03*
D22*
X37000000Y-57600000D03*
X51000000Y-57600000D03*
X51000000Y-35000000D03*
X37000000Y-35000000D03*
D15*
X54500000Y-49480000D03*
X54500000Y-52020000D03*
X54500000Y-46940000D03*
X54500000Y-54560000D03*
X54500000Y-44400000D03*
X54500000Y-57100000D03*
X54500000Y-41860000D03*
X54500000Y-59640000D03*
D23*
X51500000Y-72000000D03*
D24*
X51500000Y-69460000D03*
D25*
X54500000Y-35000000D03*
X33500000Y-35000000D03*
D17*
X54500000Y-77730000D03*
X54500000Y-76460000D03*
D18*
X54500000Y-79000000D03*
D16*
X33500000Y-79920000D03*
X35500000Y-79920000D03*
X37500000Y-79920000D03*
X39500000Y-79920000D03*
X41500000Y-79920000D03*
X43500000Y-79920000D03*
X45500000Y-79920000D03*
X47500000Y-79920000D03*
X47500000Y-63920000D03*
X45500000Y-63920000D03*
X43500000Y-63920000D03*
X41500000Y-63920000D03*
X39500000Y-63920000D03*
X37500000Y-63920000D03*
X35500000Y-63920000D03*
X33500000Y-63920000D03*
D23*
X54400000Y-72000000D03*
D24*
X54400000Y-69460000D03*
X54400000Y-66920000D03*
X54400000Y-64380000D03*
D26*
X48300000Y-35000000D03*
X39700000Y-35000000D03*
D20*
X46000000Y-35000000D03*
X42000000Y-35000000D03*
X44000000Y-35000000D03*
D13*
X47500000Y-39500000D03*
D27*
X50500000Y-39500000D03*
X38500000Y-39500000D03*
D13*
X41500000Y-39500000D03*
X44500000Y-39500000D03*
M02*
