G04 #@! TF.FileFunction,Profile,NP*
%FSLAX46Y46*%
G04 Gerber Fmt 4.6, Leading zero omitted, Abs format (unit mm)*
G04 Created by KiCad (PCBNEW 4.0.6) date 07/26/18 14:24:44*
%MOMM*%
%LPD*%
G01*
G04 APERTURE LIST*
%ADD10C,0.100000*%
%ADD11C,0.150000*%
G04 APERTURE END LIST*
D10*
D11*
X113000000Y-61000000D02*
X67000000Y-61000000D01*
X67000000Y-58000000D02*
X113000000Y-58000000D01*
X60000000Y-61000000D02*
X64500000Y-61000000D01*
X60000000Y-58000000D02*
X64500000Y-58000000D01*
X60000000Y-54500000D02*
X60000000Y-58000000D01*
X60000000Y-41000000D02*
X60000000Y-52500000D01*
X60000000Y-33000000D02*
X60000000Y-39000000D01*
X56500000Y-33000000D02*
X56500000Y-39000000D01*
X56500000Y-52500000D02*
X56500000Y-41000000D01*
X56500000Y-65500000D02*
X56500000Y-54500000D01*
X56500000Y-81000000D02*
X56500000Y-67500000D01*
X60000000Y-67500000D02*
X60000000Y-86000000D01*
X60000000Y-61000000D02*
X60000000Y-65500000D01*
X113000000Y-89000000D02*
X67000000Y-89000000D01*
X67000000Y-86000000D02*
X113000000Y-86000000D01*
X60000000Y-86000000D02*
X65000000Y-86000000D01*
X60000000Y-89000000D02*
X65000000Y-89000000D01*
X67000000Y-86000000D02*
X67000000Y-89000000D01*
X65000000Y-86000000D02*
X65000000Y-89000000D01*
X56500000Y-67500000D02*
X60000000Y-67500000D01*
X56500000Y-65500000D02*
X60000000Y-65500000D01*
X67000000Y-61000000D02*
X67000000Y-58000000D01*
X64500000Y-58000000D02*
X64500000Y-61000000D01*
X56500000Y-54500000D02*
X60000000Y-54500000D01*
X56500000Y-52500000D02*
X60000000Y-52500000D01*
X56500000Y-41000000D02*
X60000000Y-41000000D01*
X56500000Y-39000000D02*
X60000000Y-39000000D01*
X113000000Y-33000000D02*
X60000000Y-33000000D01*
X113000000Y-33000000D02*
X113000000Y-58000000D01*
X113000000Y-61000000D02*
X113000000Y-86000000D01*
X60000000Y-114000000D02*
X113000000Y-114000000D01*
X60000000Y-89000000D02*
X60000000Y-114000000D01*
X113000000Y-89000000D02*
X113000000Y-114000000D01*
X31500000Y-33000000D02*
X56500000Y-33000000D01*
X31500000Y-34500000D02*
X31500000Y-33000000D01*
X31500000Y-81000000D02*
X56500000Y-81000000D01*
X31500000Y-80500000D02*
X31500000Y-81000000D01*
X31500000Y-80500000D02*
X31500000Y-34500000D01*
M02*
