M48
;DRILL file {KiCad 4.0.6} date 07/26/18 14:26:36
;FORMAT={-:-/ absolute / metric / decimal}
FMAT,2
METRIC,TZ
T1C0.400
T2C0.600
T3C0.800
T4C0.900
T5C1.000
T6C1.001
T7C1.016
T8C1.300
T9C2.500
%
G90
G05
M71
T1
X33.55Y-57.51
X34.55Y-40.28
X34.59Y-41.96
X35.13Y-65.51
X35.2Y-59.68
X35.2Y-61.73
X35.47Y-69.25
X35.82Y-55.04
X35.92Y-52.32
X35.96Y-77.71
X36.05Y-48.2
X37.Y-41.
X37.Y-57.6
X37.51Y-65.51
X37.87Y-66.7
X38.Y-43.5
X38.4Y-74.87
X39.5Y-65.28
X39.86Y-77.71
X40.06Y-61.56
X40.1Y-54.72
X40.98Y-52.19
X41.51Y-65.24
X41.83Y-61.56
X41.94Y-54.77
X43.49Y-65.26
X43.5Y-74.75
X43.59Y-54.79
X43.93Y-61.54
X45.18Y-66.43
X45.46Y-54.77
X46.09Y-56.85
X46.19Y-76.6
X46.2Y-73.29
X46.26Y-60.1
X46.31Y-75.23
X46.39Y-69.23
X46.49Y-65.96
X47.2Y-50.4
X47.3Y-47.9
X47.4Y-45.4
X47.5Y-43.3
X47.5Y-61.8
X50.5Y-42.8
X50.6Y-46.3
X50.6Y-49.2
X51.4Y-66.1
X65.7Y-49.7
X65.7Y-77.7
X65.7Y-105.7
X65.8Y-54.6
X65.8Y-82.6
X65.8Y-110.6
X66.Y-43.1
X66.Y-71.1
X66.Y-99.1
X66.7Y-46.2
X66.7Y-74.2
X66.7Y-102.2
X68.1Y-52.
X68.1Y-54.6
X68.1Y-80.
X68.1Y-82.6
X68.1Y-108.
X68.1Y-110.6
X69.2Y-49.7
X69.2Y-77.7
X69.2Y-105.7
X69.75Y-38.75
X69.75Y-66.75
X69.75Y-94.75
X70.5Y-52.1
X70.5Y-54.6
X70.5Y-80.1
X70.5Y-82.6
X70.5Y-108.1
X70.5Y-110.6
X70.7Y-44.3
X70.7Y-72.3
X70.7Y-100.3
X72.25Y-38.75
X72.25Y-66.75
X72.25Y-94.75
X72.8Y-46.2
X72.8Y-74.2
X72.8Y-102.2
X72.9Y-52.
X72.9Y-54.6
X72.9Y-80.
X72.9Y-82.6
X72.9Y-108.
X72.9Y-110.6
X73.5Y-49.8
X73.5Y-77.8
X73.5Y-105.8
X74.75Y-38.75
X74.75Y-66.75
X74.75Y-94.75
X77.25Y-38.75
X77.25Y-66.75
X77.25Y-94.75
X77.5Y-50.5
X77.5Y-78.5
X77.5Y-106.5
X80.Y-38.75
X80.Y-66.75
X80.Y-94.75
X81.9Y-56.5
X81.9Y-84.5
X81.9Y-112.5
X84.9Y-56.5
X84.9Y-84.5
X84.9Y-112.5
X85.75Y-39.
X85.75Y-67.
X85.75Y-95.
X88.Y-42.25
X88.Y-56.5
X88.Y-70.25
X88.Y-84.5
X88.Y-98.25
X88.Y-112.5
X90.75Y-36.5
X90.75Y-64.5
X90.75Y-92.5
X90.8Y-39.8
X90.8Y-67.8
X90.8Y-95.8
X91.75Y-52.
X91.75Y-80.
X91.75Y-108.
X94.Y-36.5
X94.Y-39.8
X94.Y-64.5
X94.Y-67.8
X94.Y-92.5
X94.Y-95.8
X95.75Y-54.25
X95.75Y-82.25
X95.75Y-110.25
X96.75Y-36.5
X96.75Y-64.5
X96.75Y-92.5
X96.9Y-39.8
X96.9Y-67.8
X96.9Y-95.8
X97.Y-53.25
X97.Y-81.25
X97.Y-109.25
X99.Y-52.25
X99.Y-53.75
X99.Y-80.25
X99.Y-81.75
X99.Y-108.25
X99.Y-109.75
X100.Y-36.5
X100.Y-39.8
X100.Y-64.5
X100.Y-67.8
X100.Y-92.5
X100.Y-95.8
X101.25Y-52.75
X101.25Y-80.75
X101.25Y-108.75
T2
X33.97Y-43.53
X35.39Y-76.38
X43.51Y-76.39
X48.75Y-52.75
X48.75Y-58.75
X54.5Y-76.46
X54.5Y-77.73
X54.5Y-79.
X62.Y-53.
X62.Y-54.27
X62.Y-55.54
X62.Y-81.
X62.Y-82.27
X62.Y-83.54
X62.Y-109.
X62.Y-110.27
X62.Y-111.54
T3
X42.Y-35.
X44.Y-35.
X46.Y-35.
X110.5Y-43.5
X110.5Y-45.5
X110.5Y-47.5
X110.5Y-71.5
X110.5Y-73.5
X110.5Y-75.5
X110.5Y-99.5
X110.5Y-101.5
X110.5Y-103.5
T4
X54.5Y-41.86
X54.5Y-44.4
X54.5Y-46.94
X54.5Y-49.48
X54.5Y-52.02
X54.5Y-54.56
X54.5Y-57.1
X54.5Y-59.64
X62.11Y-35.5
X62.11Y-63.5
X62.11Y-91.5
X64.65Y-35.5
X64.65Y-63.5
X64.65Y-91.5
X67.19Y-35.5
X67.19Y-63.5
X67.19Y-91.5
X69.73Y-35.5
X69.73Y-63.5
X69.73Y-91.5
X72.27Y-35.5
X72.27Y-63.5
X72.27Y-91.5
X74.81Y-35.5
X74.81Y-63.5
X74.81Y-91.5
X77.35Y-35.5
X77.35Y-63.5
X77.35Y-91.5
X79.89Y-35.5
X79.89Y-63.5
X79.89Y-91.5
T5
X37.Y-35.
X37.Y-57.6
X38.5Y-39.5
X41.5Y-39.5
X44.5Y-39.5
X47.5Y-39.5
X50.5Y-39.5
X51.Y-35.
X51.Y-57.6
X51.5Y-69.46
X51.5Y-72.
X54.4Y-64.38
X54.4Y-66.92
X54.4Y-69.46
X54.4Y-72.
X88.15Y-38.5
X88.15Y-52.5
X88.15Y-66.5
X88.15Y-80.5
X88.15Y-94.5
X88.15Y-108.5
X105.75Y-39.5
X105.75Y-42.5
X105.75Y-45.5
X105.75Y-48.5
X105.75Y-51.5
X105.75Y-67.5
X105.75Y-70.5
X105.75Y-73.5
X105.75Y-76.5
X105.75Y-79.5
X105.75Y-95.5
X105.75Y-98.5
X105.75Y-101.5
X105.75Y-104.5
X105.75Y-107.5
X110.75Y-38.5
X110.75Y-52.5
X110.75Y-66.5
X110.75Y-80.5
X110.75Y-94.5
X110.75Y-108.5
T6
X91.499Y-42.75
X91.499Y-45.75
X91.499Y-49.
X91.499Y-70.75
X91.499Y-73.75
X91.499Y-77.
X91.499Y-98.75
X91.499Y-101.75
X91.499Y-105.
X101.501Y-42.75
X101.501Y-45.75
X101.501Y-49.
X101.501Y-70.75
X101.501Y-73.75
X101.501Y-77.
X101.501Y-98.75
X101.501Y-101.75
X101.501Y-105.
T7
X90.84Y-34.07
X90.84Y-56.93
X90.84Y-62.07
X90.84Y-84.93
X90.84Y-90.07
X90.84Y-112.93
X93.38Y-34.07
X93.38Y-56.93
X93.38Y-62.07
X93.38Y-84.93
X93.38Y-90.07
X93.38Y-112.93
X95.92Y-34.07
X95.92Y-56.93
X95.92Y-62.07
X95.92Y-84.93
X95.92Y-90.07
X95.92Y-112.93
X98.46Y-34.07
X98.46Y-56.93
X98.46Y-62.07
X98.46Y-84.93
X98.46Y-90.07
X98.46Y-112.93
X101.Y-34.07
X101.Y-56.93
X101.Y-62.07
X101.Y-84.93
X101.Y-90.07
X101.Y-112.93
X103.54Y-34.07
X103.54Y-56.93
X103.54Y-62.07
X103.54Y-84.93
X103.54Y-90.07
X103.54Y-112.93
X106.08Y-34.07
X106.08Y-56.93
X106.08Y-62.07
X106.08Y-84.93
X106.08Y-90.07
X106.08Y-112.93
X108.62Y-34.07
X108.62Y-56.93
X108.62Y-62.07
X108.62Y-84.93
X108.62Y-90.07
X108.62Y-112.93
T8
X39.7Y-35.
X48.3Y-35.
X110.5Y-41.2
X110.5Y-49.8
X110.5Y-69.2
X110.5Y-77.8
X110.5Y-97.2
X110.5Y-105.8
T9
X33.5Y-35.
X54.5Y-35.
T0
M30
