G04 #@! TF.FileFunction,Legend,Top*
%FSLAX46Y46*%
G04 Gerber Fmt 4.6, Leading zero omitted, Abs format (unit mm)*
G04 Created by KiCad (PCBNEW 4.0.6) date 07/26/18 14:24:44*
%MOMM*%
%LPD*%
G01*
G04 APERTURE LIST*
%ADD10C,0.100000*%
%ADD11C,0.150000*%
%ADD12C,0.200000*%
%ADD13C,0.120000*%
%ADD14C,0.300000*%
G04 APERTURE END LIST*
D10*
D11*
X113000000Y-61000000D02*
X67000000Y-61000000D01*
X67000000Y-58000000D02*
X113000000Y-58000000D01*
X60000000Y-61000000D02*
X64500000Y-61000000D01*
X60000000Y-58000000D02*
X64500000Y-58000000D01*
X60000000Y-54500000D02*
X60000000Y-58000000D01*
X60000000Y-41000000D02*
X60000000Y-52500000D01*
X60000000Y-33000000D02*
X60000000Y-39000000D01*
X56500000Y-33000000D02*
X56500000Y-39000000D01*
X56500000Y-52500000D02*
X56500000Y-41000000D01*
X56500000Y-65500000D02*
X56500000Y-54500000D01*
X56500000Y-81000000D02*
X56500000Y-67500000D01*
X60000000Y-67500000D02*
X60000000Y-86000000D01*
X60000000Y-61000000D02*
X60000000Y-65500000D01*
X113000000Y-89000000D02*
X67000000Y-89000000D01*
X67000000Y-86000000D02*
X113000000Y-86000000D01*
X60000000Y-86000000D02*
X65000000Y-86000000D01*
X60000000Y-89000000D02*
X65000000Y-89000000D01*
X67000000Y-86000000D02*
X67000000Y-89000000D01*
X65000000Y-86000000D02*
X65000000Y-89000000D01*
X56500000Y-67500000D02*
X60000000Y-67500000D01*
X56500000Y-65500000D02*
X60000000Y-65500000D01*
X67000000Y-61000000D02*
X67000000Y-58000000D01*
X64500000Y-58000000D02*
X64500000Y-61000000D01*
X56500000Y-54500000D02*
X60000000Y-54500000D01*
X56500000Y-52500000D02*
X60000000Y-52500000D01*
X56500000Y-41000000D02*
X60000000Y-41000000D01*
X56500000Y-39000000D02*
X60000000Y-39000000D01*
D12*
X67392858Y-52928571D02*
X67621429Y-53928571D01*
X67850000Y-53214286D01*
X68078572Y-53928571D01*
X68307143Y-52928571D01*
X68650001Y-52928571D02*
X68878572Y-53928571D01*
X69107143Y-53214286D01*
X69335715Y-53928571D01*
X69564286Y-52928571D01*
X69907144Y-52928571D02*
X70135715Y-53928571D01*
X70364286Y-53214286D01*
X70592858Y-53928571D01*
X70821429Y-52928571D01*
X71278572Y-53785714D02*
X71335715Y-53857143D01*
X71278572Y-53928571D01*
X71221429Y-53857143D01*
X71278572Y-53785714D01*
X71278572Y-53928571D01*
X71850001Y-53928571D02*
X71850001Y-52928571D01*
X71850001Y-52428571D02*
X71792858Y-52500000D01*
X71850001Y-52571429D01*
X71907144Y-52500000D01*
X71850001Y-52428571D01*
X71850001Y-52571429D01*
X72364287Y-53857143D02*
X72478573Y-53928571D01*
X72707145Y-53928571D01*
X72821430Y-53857143D01*
X72878573Y-53714286D01*
X72878573Y-53642857D01*
X72821430Y-53500000D01*
X72707145Y-53428571D01*
X72535716Y-53428571D01*
X72421430Y-53357143D01*
X72364287Y-53214286D01*
X72364287Y-53142857D01*
X72421430Y-53000000D01*
X72535716Y-52928571D01*
X72707145Y-52928571D01*
X72821430Y-53000000D01*
X73392859Y-52928571D02*
X73392859Y-54428571D01*
X73392859Y-53000000D02*
X73507145Y-52928571D01*
X73735716Y-52928571D01*
X73850002Y-53000000D01*
X73907145Y-53071429D01*
X73964288Y-53214286D01*
X73964288Y-53642857D01*
X73907145Y-53785714D01*
X73850002Y-53857143D01*
X73735716Y-53928571D01*
X73507145Y-53928571D01*
X73392859Y-53857143D01*
X74478573Y-53928571D02*
X74478573Y-52928571D01*
X74478573Y-52428571D02*
X74421430Y-52500000D01*
X74478573Y-52571429D01*
X74535716Y-52500000D01*
X74478573Y-52428571D01*
X74478573Y-52571429D01*
X75050002Y-52928571D02*
X75050002Y-53928571D01*
X75050002Y-53071429D02*
X75107145Y-53000000D01*
X75221431Y-52928571D01*
X75392859Y-52928571D01*
X75507145Y-53000000D01*
X75564288Y-53142857D01*
X75564288Y-53928571D01*
X76650002Y-53928571D02*
X76650002Y-52428571D01*
X76650002Y-53857143D02*
X76535716Y-53928571D01*
X76307145Y-53928571D01*
X76192859Y-53857143D01*
X76135716Y-53785714D01*
X76078573Y-53642857D01*
X76078573Y-53214286D01*
X76135716Y-53071429D01*
X76192859Y-53000000D01*
X76307145Y-52928571D01*
X76535716Y-52928571D01*
X76650002Y-53000000D01*
X77678573Y-53857143D02*
X77564287Y-53928571D01*
X77335716Y-53928571D01*
X77221430Y-53857143D01*
X77164287Y-53714286D01*
X77164287Y-53142857D01*
X77221430Y-53000000D01*
X77335716Y-52928571D01*
X77564287Y-52928571D01*
X77678573Y-53000000D01*
X77735716Y-53142857D01*
X77735716Y-53285714D01*
X77164287Y-53428571D01*
X78421430Y-53928571D02*
X78307144Y-53857143D01*
X78250001Y-53714286D01*
X78250001Y-52428571D01*
X78878572Y-53785714D02*
X78935715Y-53857143D01*
X78878572Y-53928571D01*
X78821429Y-53857143D01*
X78878572Y-53785714D01*
X78878572Y-53928571D01*
X79964287Y-53928571D02*
X79964287Y-52428571D01*
X79964287Y-53857143D02*
X79850001Y-53928571D01*
X79621430Y-53928571D01*
X79507144Y-53857143D01*
X79450001Y-53785714D01*
X79392858Y-53642857D01*
X79392858Y-53214286D01*
X79450001Y-53071429D01*
X79507144Y-53000000D01*
X79621430Y-52928571D01*
X79850001Y-52928571D01*
X79964287Y-53000000D01*
X80992858Y-53857143D02*
X80878572Y-53928571D01*
X80650001Y-53928571D01*
X80535715Y-53857143D01*
X80478572Y-53714286D01*
X80478572Y-53142857D01*
X80535715Y-53000000D01*
X80650001Y-52928571D01*
X80878572Y-52928571D01*
X80992858Y-53000000D01*
X81050001Y-53142857D01*
X81050001Y-53285714D01*
X80478572Y-53428571D01*
X96250000Y-51500000D02*
X95250000Y-51500000D01*
X97000000Y-51500000D02*
X98000000Y-51500000D01*
X96250000Y-50750000D02*
X96250000Y-52250000D01*
X97000000Y-50750000D02*
X97000000Y-52250000D01*
X96250000Y-51500000D02*
X97000000Y-50750000D01*
X97000000Y-52250000D02*
X96250000Y-51500000D01*
D11*
X65952381Y-57392857D02*
X64952381Y-57392857D01*
X64952381Y-57154762D01*
X65000000Y-57011904D01*
X65095238Y-56916666D01*
X65190476Y-56869047D01*
X65380952Y-56821428D01*
X65523810Y-56821428D01*
X65714286Y-56869047D01*
X65809524Y-56916666D01*
X65904762Y-57011904D01*
X65952381Y-57154762D01*
X65952381Y-57392857D01*
X65904762Y-56440476D02*
X65952381Y-56297619D01*
X65952381Y-56059523D01*
X65904762Y-55964285D01*
X65857143Y-55916666D01*
X65761905Y-55869047D01*
X65666667Y-55869047D01*
X65571429Y-55916666D01*
X65523810Y-55964285D01*
X65476190Y-56059523D01*
X65428571Y-56250000D01*
X65380952Y-56345238D01*
X65333333Y-56392857D01*
X65238095Y-56440476D01*
X65142857Y-56440476D01*
X65047619Y-56392857D01*
X65000000Y-56345238D01*
X64952381Y-56250000D01*
X64952381Y-56011904D01*
X65000000Y-55869047D01*
X65952381Y-54916666D02*
X65952381Y-55488095D01*
X65952381Y-55202381D02*
X64952381Y-55202381D01*
X65095238Y-55297619D01*
X65190476Y-55392857D01*
X65238095Y-55488095D01*
X65380952Y-54345238D02*
X65333333Y-54440476D01*
X65285714Y-54488095D01*
X65190476Y-54535714D01*
X65142857Y-54535714D01*
X65047619Y-54488095D01*
X65000000Y-54440476D01*
X64952381Y-54345238D01*
X64952381Y-54154761D01*
X65000000Y-54059523D01*
X65047619Y-54011904D01*
X65142857Y-53964285D01*
X65190476Y-53964285D01*
X65285714Y-54011904D01*
X65333333Y-54059523D01*
X65380952Y-54154761D01*
X65380952Y-54345238D01*
X65428571Y-54440476D01*
X65476190Y-54488095D01*
X65571429Y-54535714D01*
X65761905Y-54535714D01*
X65857143Y-54488095D01*
X65904762Y-54440476D01*
X65952381Y-54345238D01*
X65952381Y-54154761D01*
X65904762Y-54059523D01*
X65857143Y-54011904D01*
X65761905Y-53964285D01*
X65571429Y-53964285D01*
X65476190Y-54011904D01*
X65428571Y-54059523D01*
X65380952Y-54154761D01*
X65428571Y-53202380D02*
X65476190Y-53059523D01*
X65523810Y-53011904D01*
X65619048Y-52964285D01*
X65761905Y-52964285D01*
X65857143Y-53011904D01*
X65904762Y-53059523D01*
X65952381Y-53154761D01*
X65952381Y-53535714D01*
X64952381Y-53535714D01*
X64952381Y-53202380D01*
X65000000Y-53107142D01*
X65047619Y-53059523D01*
X65142857Y-53011904D01*
X65238095Y-53011904D01*
X65333333Y-53059523D01*
X65380952Y-53107142D01*
X65428571Y-53202380D01*
X65428571Y-53535714D01*
X65047619Y-52583333D02*
X65000000Y-52535714D01*
X64952381Y-52440476D01*
X64952381Y-52202380D01*
X65000000Y-52107142D01*
X65047619Y-52059523D01*
X65142857Y-52011904D01*
X65238095Y-52011904D01*
X65380952Y-52059523D01*
X65952381Y-52630952D01*
X65952381Y-52011904D01*
X64952381Y-51392857D02*
X64952381Y-51297618D01*
X65000000Y-51202380D01*
X65047619Y-51154761D01*
X65142857Y-51107142D01*
X65333333Y-51059523D01*
X65571429Y-51059523D01*
X65761905Y-51107142D01*
X65857143Y-51154761D01*
X65904762Y-51202380D01*
X65952381Y-51297618D01*
X65952381Y-51392857D01*
X65904762Y-51488095D01*
X65857143Y-51535714D01*
X65761905Y-51583333D01*
X65571429Y-51630952D01*
X65333333Y-51630952D01*
X65142857Y-51583333D01*
X65047619Y-51535714D01*
X65000000Y-51488095D01*
X64952381Y-51392857D01*
X113000000Y-33000000D02*
X60000000Y-33000000D01*
X113000000Y-33000000D02*
X113000000Y-58000000D01*
D12*
X67392858Y-80928571D02*
X67621429Y-81928571D01*
X67850000Y-81214286D01*
X68078572Y-81928571D01*
X68307143Y-80928571D01*
X68650001Y-80928571D02*
X68878572Y-81928571D01*
X69107143Y-81214286D01*
X69335715Y-81928571D01*
X69564286Y-80928571D01*
X69907144Y-80928571D02*
X70135715Y-81928571D01*
X70364286Y-81214286D01*
X70592858Y-81928571D01*
X70821429Y-80928571D01*
X71278572Y-81785714D02*
X71335715Y-81857143D01*
X71278572Y-81928571D01*
X71221429Y-81857143D01*
X71278572Y-81785714D01*
X71278572Y-81928571D01*
X71850001Y-81928571D02*
X71850001Y-80928571D01*
X71850001Y-80428571D02*
X71792858Y-80500000D01*
X71850001Y-80571429D01*
X71907144Y-80500000D01*
X71850001Y-80428571D01*
X71850001Y-80571429D01*
X72364287Y-81857143D02*
X72478573Y-81928571D01*
X72707145Y-81928571D01*
X72821430Y-81857143D01*
X72878573Y-81714286D01*
X72878573Y-81642857D01*
X72821430Y-81500000D01*
X72707145Y-81428571D01*
X72535716Y-81428571D01*
X72421430Y-81357143D01*
X72364287Y-81214286D01*
X72364287Y-81142857D01*
X72421430Y-81000000D01*
X72535716Y-80928571D01*
X72707145Y-80928571D01*
X72821430Y-81000000D01*
X73392859Y-80928571D02*
X73392859Y-82428571D01*
X73392859Y-81000000D02*
X73507145Y-80928571D01*
X73735716Y-80928571D01*
X73850002Y-81000000D01*
X73907145Y-81071429D01*
X73964288Y-81214286D01*
X73964288Y-81642857D01*
X73907145Y-81785714D01*
X73850002Y-81857143D01*
X73735716Y-81928571D01*
X73507145Y-81928571D01*
X73392859Y-81857143D01*
X74478573Y-81928571D02*
X74478573Y-80928571D01*
X74478573Y-80428571D02*
X74421430Y-80500000D01*
X74478573Y-80571429D01*
X74535716Y-80500000D01*
X74478573Y-80428571D01*
X74478573Y-80571429D01*
X75050002Y-80928571D02*
X75050002Y-81928571D01*
X75050002Y-81071429D02*
X75107145Y-81000000D01*
X75221431Y-80928571D01*
X75392859Y-80928571D01*
X75507145Y-81000000D01*
X75564288Y-81142857D01*
X75564288Y-81928571D01*
X76650002Y-81928571D02*
X76650002Y-80428571D01*
X76650002Y-81857143D02*
X76535716Y-81928571D01*
X76307145Y-81928571D01*
X76192859Y-81857143D01*
X76135716Y-81785714D01*
X76078573Y-81642857D01*
X76078573Y-81214286D01*
X76135716Y-81071429D01*
X76192859Y-81000000D01*
X76307145Y-80928571D01*
X76535716Y-80928571D01*
X76650002Y-81000000D01*
X77678573Y-81857143D02*
X77564287Y-81928571D01*
X77335716Y-81928571D01*
X77221430Y-81857143D01*
X77164287Y-81714286D01*
X77164287Y-81142857D01*
X77221430Y-81000000D01*
X77335716Y-80928571D01*
X77564287Y-80928571D01*
X77678573Y-81000000D01*
X77735716Y-81142857D01*
X77735716Y-81285714D01*
X77164287Y-81428571D01*
X78421430Y-81928571D02*
X78307144Y-81857143D01*
X78250001Y-81714286D01*
X78250001Y-80428571D01*
X78878572Y-81785714D02*
X78935715Y-81857143D01*
X78878572Y-81928571D01*
X78821429Y-81857143D01*
X78878572Y-81785714D01*
X78878572Y-81928571D01*
X79964287Y-81928571D02*
X79964287Y-80428571D01*
X79964287Y-81857143D02*
X79850001Y-81928571D01*
X79621430Y-81928571D01*
X79507144Y-81857143D01*
X79450001Y-81785714D01*
X79392858Y-81642857D01*
X79392858Y-81214286D01*
X79450001Y-81071429D01*
X79507144Y-81000000D01*
X79621430Y-80928571D01*
X79850001Y-80928571D01*
X79964287Y-81000000D01*
X80992858Y-81857143D02*
X80878572Y-81928571D01*
X80650001Y-81928571D01*
X80535715Y-81857143D01*
X80478572Y-81714286D01*
X80478572Y-81142857D01*
X80535715Y-81000000D01*
X80650001Y-80928571D01*
X80878572Y-80928571D01*
X80992858Y-81000000D01*
X81050001Y-81142857D01*
X81050001Y-81285714D01*
X80478572Y-81428571D01*
X96250000Y-79500000D02*
X95250000Y-79500000D01*
X97000000Y-79500000D02*
X98000000Y-79500000D01*
X96250000Y-78750000D02*
X96250000Y-80250000D01*
X97000000Y-78750000D02*
X97000000Y-80250000D01*
X96250000Y-79500000D02*
X97000000Y-78750000D01*
X97000000Y-80250000D02*
X96250000Y-79500000D01*
D11*
X65952381Y-85392857D02*
X64952381Y-85392857D01*
X64952381Y-85154762D01*
X65000000Y-85011904D01*
X65095238Y-84916666D01*
X65190476Y-84869047D01*
X65380952Y-84821428D01*
X65523810Y-84821428D01*
X65714286Y-84869047D01*
X65809524Y-84916666D01*
X65904762Y-85011904D01*
X65952381Y-85154762D01*
X65952381Y-85392857D01*
X65904762Y-84440476D02*
X65952381Y-84297619D01*
X65952381Y-84059523D01*
X65904762Y-83964285D01*
X65857143Y-83916666D01*
X65761905Y-83869047D01*
X65666667Y-83869047D01*
X65571429Y-83916666D01*
X65523810Y-83964285D01*
X65476190Y-84059523D01*
X65428571Y-84250000D01*
X65380952Y-84345238D01*
X65333333Y-84392857D01*
X65238095Y-84440476D01*
X65142857Y-84440476D01*
X65047619Y-84392857D01*
X65000000Y-84345238D01*
X64952381Y-84250000D01*
X64952381Y-84011904D01*
X65000000Y-83869047D01*
X65952381Y-82916666D02*
X65952381Y-83488095D01*
X65952381Y-83202381D02*
X64952381Y-83202381D01*
X65095238Y-83297619D01*
X65190476Y-83392857D01*
X65238095Y-83488095D01*
X65380952Y-82345238D02*
X65333333Y-82440476D01*
X65285714Y-82488095D01*
X65190476Y-82535714D01*
X65142857Y-82535714D01*
X65047619Y-82488095D01*
X65000000Y-82440476D01*
X64952381Y-82345238D01*
X64952381Y-82154761D01*
X65000000Y-82059523D01*
X65047619Y-82011904D01*
X65142857Y-81964285D01*
X65190476Y-81964285D01*
X65285714Y-82011904D01*
X65333333Y-82059523D01*
X65380952Y-82154761D01*
X65380952Y-82345238D01*
X65428571Y-82440476D01*
X65476190Y-82488095D01*
X65571429Y-82535714D01*
X65761905Y-82535714D01*
X65857143Y-82488095D01*
X65904762Y-82440476D01*
X65952381Y-82345238D01*
X65952381Y-82154761D01*
X65904762Y-82059523D01*
X65857143Y-82011904D01*
X65761905Y-81964285D01*
X65571429Y-81964285D01*
X65476190Y-82011904D01*
X65428571Y-82059523D01*
X65380952Y-82154761D01*
X65428571Y-81202380D02*
X65476190Y-81059523D01*
X65523810Y-81011904D01*
X65619048Y-80964285D01*
X65761905Y-80964285D01*
X65857143Y-81011904D01*
X65904762Y-81059523D01*
X65952381Y-81154761D01*
X65952381Y-81535714D01*
X64952381Y-81535714D01*
X64952381Y-81202380D01*
X65000000Y-81107142D01*
X65047619Y-81059523D01*
X65142857Y-81011904D01*
X65238095Y-81011904D01*
X65333333Y-81059523D01*
X65380952Y-81107142D01*
X65428571Y-81202380D01*
X65428571Y-81535714D01*
X65047619Y-80583333D02*
X65000000Y-80535714D01*
X64952381Y-80440476D01*
X64952381Y-80202380D01*
X65000000Y-80107142D01*
X65047619Y-80059523D01*
X65142857Y-80011904D01*
X65238095Y-80011904D01*
X65380952Y-80059523D01*
X65952381Y-80630952D01*
X65952381Y-80011904D01*
X64952381Y-79392857D02*
X64952381Y-79297618D01*
X65000000Y-79202380D01*
X65047619Y-79154761D01*
X65142857Y-79107142D01*
X65333333Y-79059523D01*
X65571429Y-79059523D01*
X65761905Y-79107142D01*
X65857143Y-79154761D01*
X65904762Y-79202380D01*
X65952381Y-79297618D01*
X65952381Y-79392857D01*
X65904762Y-79488095D01*
X65857143Y-79535714D01*
X65761905Y-79583333D01*
X65571429Y-79630952D01*
X65333333Y-79630952D01*
X65142857Y-79583333D01*
X65047619Y-79535714D01*
X65000000Y-79488095D01*
X64952381Y-79392857D01*
X113000000Y-61000000D02*
X113000000Y-86000000D01*
D12*
X67392858Y-108928571D02*
X67621429Y-109928571D01*
X67850000Y-109214286D01*
X68078572Y-109928571D01*
X68307143Y-108928571D01*
X68650001Y-108928571D02*
X68878572Y-109928571D01*
X69107143Y-109214286D01*
X69335715Y-109928571D01*
X69564286Y-108928571D01*
X69907144Y-108928571D02*
X70135715Y-109928571D01*
X70364286Y-109214286D01*
X70592858Y-109928571D01*
X70821429Y-108928571D01*
X71278572Y-109785714D02*
X71335715Y-109857143D01*
X71278572Y-109928571D01*
X71221429Y-109857143D01*
X71278572Y-109785714D01*
X71278572Y-109928571D01*
X71850001Y-109928571D02*
X71850001Y-108928571D01*
X71850001Y-108428571D02*
X71792858Y-108500000D01*
X71850001Y-108571429D01*
X71907144Y-108500000D01*
X71850001Y-108428571D01*
X71850001Y-108571429D01*
X72364287Y-109857143D02*
X72478573Y-109928571D01*
X72707145Y-109928571D01*
X72821430Y-109857143D01*
X72878573Y-109714286D01*
X72878573Y-109642857D01*
X72821430Y-109500000D01*
X72707145Y-109428571D01*
X72535716Y-109428571D01*
X72421430Y-109357143D01*
X72364287Y-109214286D01*
X72364287Y-109142857D01*
X72421430Y-109000000D01*
X72535716Y-108928571D01*
X72707145Y-108928571D01*
X72821430Y-109000000D01*
X73392859Y-108928571D02*
X73392859Y-110428571D01*
X73392859Y-109000000D02*
X73507145Y-108928571D01*
X73735716Y-108928571D01*
X73850002Y-109000000D01*
X73907145Y-109071429D01*
X73964288Y-109214286D01*
X73964288Y-109642857D01*
X73907145Y-109785714D01*
X73850002Y-109857143D01*
X73735716Y-109928571D01*
X73507145Y-109928571D01*
X73392859Y-109857143D01*
X74478573Y-109928571D02*
X74478573Y-108928571D01*
X74478573Y-108428571D02*
X74421430Y-108500000D01*
X74478573Y-108571429D01*
X74535716Y-108500000D01*
X74478573Y-108428571D01*
X74478573Y-108571429D01*
X75050002Y-108928571D02*
X75050002Y-109928571D01*
X75050002Y-109071429D02*
X75107145Y-109000000D01*
X75221431Y-108928571D01*
X75392859Y-108928571D01*
X75507145Y-109000000D01*
X75564288Y-109142857D01*
X75564288Y-109928571D01*
X76650002Y-109928571D02*
X76650002Y-108428571D01*
X76650002Y-109857143D02*
X76535716Y-109928571D01*
X76307145Y-109928571D01*
X76192859Y-109857143D01*
X76135716Y-109785714D01*
X76078573Y-109642857D01*
X76078573Y-109214286D01*
X76135716Y-109071429D01*
X76192859Y-109000000D01*
X76307145Y-108928571D01*
X76535716Y-108928571D01*
X76650002Y-109000000D01*
X77678573Y-109857143D02*
X77564287Y-109928571D01*
X77335716Y-109928571D01*
X77221430Y-109857143D01*
X77164287Y-109714286D01*
X77164287Y-109142857D01*
X77221430Y-109000000D01*
X77335716Y-108928571D01*
X77564287Y-108928571D01*
X77678573Y-109000000D01*
X77735716Y-109142857D01*
X77735716Y-109285714D01*
X77164287Y-109428571D01*
X78421430Y-109928571D02*
X78307144Y-109857143D01*
X78250001Y-109714286D01*
X78250001Y-108428571D01*
X78878572Y-109785714D02*
X78935715Y-109857143D01*
X78878572Y-109928571D01*
X78821429Y-109857143D01*
X78878572Y-109785714D01*
X78878572Y-109928571D01*
X79964287Y-109928571D02*
X79964287Y-108428571D01*
X79964287Y-109857143D02*
X79850001Y-109928571D01*
X79621430Y-109928571D01*
X79507144Y-109857143D01*
X79450001Y-109785714D01*
X79392858Y-109642857D01*
X79392858Y-109214286D01*
X79450001Y-109071429D01*
X79507144Y-109000000D01*
X79621430Y-108928571D01*
X79850001Y-108928571D01*
X79964287Y-109000000D01*
X80992858Y-109857143D02*
X80878572Y-109928571D01*
X80650001Y-109928571D01*
X80535715Y-109857143D01*
X80478572Y-109714286D01*
X80478572Y-109142857D01*
X80535715Y-109000000D01*
X80650001Y-108928571D01*
X80878572Y-108928571D01*
X80992858Y-109000000D01*
X81050001Y-109142857D01*
X81050001Y-109285714D01*
X80478572Y-109428571D01*
X96250000Y-107500000D02*
X95250000Y-107500000D01*
X97000000Y-107500000D02*
X98000000Y-107500000D01*
X96250000Y-106750000D02*
X96250000Y-108250000D01*
X97000000Y-106750000D02*
X97000000Y-108250000D01*
X96250000Y-107500000D02*
X97000000Y-106750000D01*
X97000000Y-108250000D02*
X96250000Y-107500000D01*
D11*
X65952381Y-113392857D02*
X64952381Y-113392857D01*
X64952381Y-113154762D01*
X65000000Y-113011904D01*
X65095238Y-112916666D01*
X65190476Y-112869047D01*
X65380952Y-112821428D01*
X65523810Y-112821428D01*
X65714286Y-112869047D01*
X65809524Y-112916666D01*
X65904762Y-113011904D01*
X65952381Y-113154762D01*
X65952381Y-113392857D01*
X65904762Y-112440476D02*
X65952381Y-112297619D01*
X65952381Y-112059523D01*
X65904762Y-111964285D01*
X65857143Y-111916666D01*
X65761905Y-111869047D01*
X65666667Y-111869047D01*
X65571429Y-111916666D01*
X65523810Y-111964285D01*
X65476190Y-112059523D01*
X65428571Y-112250000D01*
X65380952Y-112345238D01*
X65333333Y-112392857D01*
X65238095Y-112440476D01*
X65142857Y-112440476D01*
X65047619Y-112392857D01*
X65000000Y-112345238D01*
X64952381Y-112250000D01*
X64952381Y-112011904D01*
X65000000Y-111869047D01*
X65952381Y-110916666D02*
X65952381Y-111488095D01*
X65952381Y-111202381D02*
X64952381Y-111202381D01*
X65095238Y-111297619D01*
X65190476Y-111392857D01*
X65238095Y-111488095D01*
X65380952Y-110345238D02*
X65333333Y-110440476D01*
X65285714Y-110488095D01*
X65190476Y-110535714D01*
X65142857Y-110535714D01*
X65047619Y-110488095D01*
X65000000Y-110440476D01*
X64952381Y-110345238D01*
X64952381Y-110154761D01*
X65000000Y-110059523D01*
X65047619Y-110011904D01*
X65142857Y-109964285D01*
X65190476Y-109964285D01*
X65285714Y-110011904D01*
X65333333Y-110059523D01*
X65380952Y-110154761D01*
X65380952Y-110345238D01*
X65428571Y-110440476D01*
X65476190Y-110488095D01*
X65571429Y-110535714D01*
X65761905Y-110535714D01*
X65857143Y-110488095D01*
X65904762Y-110440476D01*
X65952381Y-110345238D01*
X65952381Y-110154761D01*
X65904762Y-110059523D01*
X65857143Y-110011904D01*
X65761905Y-109964285D01*
X65571429Y-109964285D01*
X65476190Y-110011904D01*
X65428571Y-110059523D01*
X65380952Y-110154761D01*
X65428571Y-109202380D02*
X65476190Y-109059523D01*
X65523810Y-109011904D01*
X65619048Y-108964285D01*
X65761905Y-108964285D01*
X65857143Y-109011904D01*
X65904762Y-109059523D01*
X65952381Y-109154761D01*
X65952381Y-109535714D01*
X64952381Y-109535714D01*
X64952381Y-109202380D01*
X65000000Y-109107142D01*
X65047619Y-109059523D01*
X65142857Y-109011904D01*
X65238095Y-109011904D01*
X65333333Y-109059523D01*
X65380952Y-109107142D01*
X65428571Y-109202380D01*
X65428571Y-109535714D01*
X65047619Y-108583333D02*
X65000000Y-108535714D01*
X64952381Y-108440476D01*
X64952381Y-108202380D01*
X65000000Y-108107142D01*
X65047619Y-108059523D01*
X65142857Y-108011904D01*
X65238095Y-108011904D01*
X65380952Y-108059523D01*
X65952381Y-108630952D01*
X65952381Y-108011904D01*
X64952381Y-107392857D02*
X64952381Y-107297618D01*
X65000000Y-107202380D01*
X65047619Y-107154761D01*
X65142857Y-107107142D01*
X65333333Y-107059523D01*
X65571429Y-107059523D01*
X65761905Y-107107142D01*
X65857143Y-107154761D01*
X65904762Y-107202380D01*
X65952381Y-107297618D01*
X65952381Y-107392857D01*
X65904762Y-107488095D01*
X65857143Y-107535714D01*
X65761905Y-107583333D01*
X65571429Y-107630952D01*
X65333333Y-107630952D01*
X65142857Y-107583333D01*
X65047619Y-107535714D01*
X65000000Y-107488095D01*
X64952381Y-107392857D01*
X60000000Y-114000000D02*
X113000000Y-114000000D01*
X60000000Y-89000000D02*
X60000000Y-114000000D01*
X113000000Y-89000000D02*
X113000000Y-114000000D01*
X31500000Y-33000000D02*
X56500000Y-33000000D01*
X31500000Y-34500000D02*
X31500000Y-33000000D01*
X31500000Y-81000000D02*
X56500000Y-81000000D01*
X31500000Y-80500000D02*
X31500000Y-81000000D01*
X31500000Y-80500000D02*
X31500000Y-34500000D01*
X105750000Y-45500000D02*
X105750000Y-52000000D01*
X105750000Y-52000000D02*
X112750000Y-52000000D01*
X112750000Y-52000000D02*
X112750000Y-39000000D01*
X112750000Y-39000000D02*
X105750000Y-39000000D01*
X105750000Y-39000000D02*
X105750000Y-45500000D01*
D10*
X116850000Y-48690000D02*
X116020000Y-48680000D01*
X116860000Y-41520000D02*
X116040000Y-41520000D01*
D11*
X89570000Y-35340000D02*
X89570000Y-32800000D01*
X89570000Y-32800000D02*
X109890000Y-32800000D01*
X109890000Y-32800000D02*
X109890000Y-35340000D01*
X109890000Y-35340000D02*
X89570000Y-35340000D01*
X89570000Y-58200000D02*
X89570000Y-55660000D01*
X89570000Y-55660000D02*
X109890000Y-55660000D01*
X109890000Y-55660000D02*
X109890000Y-58200000D01*
X109890000Y-58200000D02*
X89570000Y-58200000D01*
D10*
X117277228Y-34682528D02*
X117277228Y-40493820D01*
X117277228Y-40493820D02*
X115993795Y-40520151D01*
X115993795Y-40520151D02*
X116000483Y-49351373D01*
X116000483Y-49351373D02*
X117202736Y-49349397D01*
X117202736Y-49349397D02*
X117176658Y-58430193D01*
X117176658Y-58430193D02*
X86006507Y-58416195D01*
X86006507Y-58416195D02*
X85403714Y-58183384D01*
X85403714Y-58183384D02*
X84858833Y-57899901D01*
X84858833Y-57899901D02*
X84372423Y-57565253D01*
X84372423Y-57565253D02*
X83945048Y-57178953D01*
X83945048Y-57178953D02*
X83577259Y-56740512D01*
X83577259Y-56740512D02*
X83269623Y-56249440D01*
X83269623Y-56249440D02*
X83022690Y-55705250D01*
X83022690Y-55705250D02*
X82837024Y-55107453D01*
X82837024Y-55107453D02*
X82808266Y-36069540D01*
X82808266Y-36069540D02*
X83042259Y-35450176D01*
X83042259Y-35450176D02*
X83326742Y-34861982D01*
X83326742Y-34861982D02*
X83676257Y-34318555D01*
X83676257Y-34318555D02*
X84105342Y-33833497D01*
X84105342Y-33833497D02*
X84628540Y-33420405D01*
X84628540Y-33420405D02*
X85260387Y-33092878D01*
X85260387Y-33092878D02*
X86015425Y-32864518D01*
X86015425Y-32864518D02*
X86908193Y-32748922D01*
X86908193Y-32748922D02*
X109463285Y-32723974D01*
X109463285Y-32723974D02*
X110424181Y-34667520D01*
X110424181Y-34667520D02*
X117232524Y-34697314D01*
X116865188Y-41540069D02*
X116865188Y-48679650D01*
X112483738Y-34721122D02*
X112483738Y-34068483D01*
X112483738Y-34068483D02*
X114476932Y-34068483D01*
X114476932Y-34068483D02*
X114476932Y-34685844D01*
D11*
X80500000Y-47500000D02*
G75*
G03X80500000Y-47500000I-2000000J0D01*
G01*
X65500000Y-47500000D02*
G75*
G03X65500000Y-47500000I-2000000J0D01*
G01*
X60500000Y-34500000D02*
X81500000Y-34500000D01*
X81500000Y-34500000D02*
X81500000Y-50500000D01*
X81500000Y-50500000D02*
X60500000Y-50500000D01*
X60500000Y-50500000D02*
X60500000Y-34500000D01*
D13*
X60150000Y-52470000D02*
X60150000Y-56070000D01*
X60161522Y-52431522D02*
G75*
G02X64600000Y-54270000I1838478J-1838478D01*
G01*
X60161522Y-56108478D02*
G75*
G03X64600000Y-54270000I1838478J1838478D01*
G01*
D11*
X112750000Y-45500000D02*
X112750000Y-41000000D01*
X112750000Y-41000000D02*
X108250000Y-41000000D01*
X108250000Y-41000000D02*
X108250000Y-50000000D01*
X108250000Y-50000000D02*
X112500000Y-50000000D01*
X112500000Y-50000000D02*
X112750000Y-50000000D01*
X112750000Y-50000000D02*
X112750000Y-45500000D01*
X96500000Y-46550100D02*
X96700660Y-46550100D01*
X96500000Y-46550100D02*
X96299340Y-46550100D01*
X96400940Y-44949900D02*
X96299340Y-44949900D01*
X96299340Y-44949900D02*
X96700660Y-44949900D01*
X96500000Y-41949900D02*
X96299340Y-41949900D01*
X96500000Y-41949900D02*
X96700660Y-41949900D01*
X96599060Y-43550100D02*
X96700660Y-43550100D01*
X96700660Y-43550100D02*
X96299340Y-43550100D01*
X96500000Y-48199900D02*
X96299340Y-48199900D01*
X96500000Y-48199900D02*
X96700660Y-48199900D01*
X96599060Y-49800100D02*
X96700660Y-49800100D01*
X96700660Y-49800100D02*
X96299340Y-49800100D01*
X105750000Y-73500000D02*
X105750000Y-80000000D01*
X105750000Y-80000000D02*
X112750000Y-80000000D01*
X112750000Y-80000000D02*
X112750000Y-67000000D01*
X112750000Y-67000000D02*
X105750000Y-67000000D01*
X105750000Y-67000000D02*
X105750000Y-73500000D01*
D10*
X116850000Y-76690000D02*
X116020000Y-76680000D01*
X116860000Y-69520000D02*
X116040000Y-69520000D01*
D11*
X89570000Y-63340000D02*
X89570000Y-60800000D01*
X89570000Y-60800000D02*
X109890000Y-60800000D01*
X109890000Y-60800000D02*
X109890000Y-63340000D01*
X109890000Y-63340000D02*
X89570000Y-63340000D01*
X89570000Y-86200000D02*
X89570000Y-83660000D01*
X89570000Y-83660000D02*
X109890000Y-83660000D01*
X109890000Y-83660000D02*
X109890000Y-86200000D01*
X109890000Y-86200000D02*
X89570000Y-86200000D01*
D10*
X117277228Y-62682528D02*
X117277228Y-68493820D01*
X117277228Y-68493820D02*
X115993795Y-68520151D01*
X115993795Y-68520151D02*
X116000483Y-77351373D01*
X116000483Y-77351373D02*
X117202736Y-77349397D01*
X117202736Y-77349397D02*
X117176658Y-86430193D01*
X117176658Y-86430193D02*
X86006507Y-86416195D01*
X86006507Y-86416195D02*
X85403714Y-86183384D01*
X85403714Y-86183384D02*
X84858833Y-85899901D01*
X84858833Y-85899901D02*
X84372423Y-85565253D01*
X84372423Y-85565253D02*
X83945048Y-85178953D01*
X83945048Y-85178953D02*
X83577259Y-84740512D01*
X83577259Y-84740512D02*
X83269623Y-84249440D01*
X83269623Y-84249440D02*
X83022690Y-83705250D01*
X83022690Y-83705250D02*
X82837024Y-83107453D01*
X82837024Y-83107453D02*
X82808266Y-64069540D01*
X82808266Y-64069540D02*
X83042259Y-63450176D01*
X83042259Y-63450176D02*
X83326742Y-62861982D01*
X83326742Y-62861982D02*
X83676257Y-62318555D01*
X83676257Y-62318555D02*
X84105342Y-61833497D01*
X84105342Y-61833497D02*
X84628540Y-61420405D01*
X84628540Y-61420405D02*
X85260387Y-61092878D01*
X85260387Y-61092878D02*
X86015425Y-60864518D01*
X86015425Y-60864518D02*
X86908193Y-60748922D01*
X86908193Y-60748922D02*
X109463285Y-60723974D01*
X109463285Y-60723974D02*
X110424181Y-62667520D01*
X110424181Y-62667520D02*
X117232524Y-62697314D01*
X116865188Y-69540069D02*
X116865188Y-76679650D01*
X112483738Y-62721122D02*
X112483738Y-62068483D01*
X112483738Y-62068483D02*
X114476932Y-62068483D01*
X114476932Y-62068483D02*
X114476932Y-62685844D01*
D11*
X80500000Y-75500000D02*
G75*
G03X80500000Y-75500000I-2000000J0D01*
G01*
X65500000Y-75500000D02*
G75*
G03X65500000Y-75500000I-2000000J0D01*
G01*
X60500000Y-62500000D02*
X81500000Y-62500000D01*
X81500000Y-62500000D02*
X81500000Y-78500000D01*
X81500000Y-78500000D02*
X60500000Y-78500000D01*
X60500000Y-78500000D02*
X60500000Y-62500000D01*
D13*
X60150000Y-80470000D02*
X60150000Y-84070000D01*
X60161522Y-80431522D02*
G75*
G02X64600000Y-82270000I1838478J-1838478D01*
G01*
X60161522Y-84108478D02*
G75*
G03X64600000Y-82270000I1838478J1838478D01*
G01*
D11*
X112750000Y-73500000D02*
X112750000Y-69000000D01*
X112750000Y-69000000D02*
X108250000Y-69000000D01*
X108250000Y-69000000D02*
X108250000Y-78000000D01*
X108250000Y-78000000D02*
X112500000Y-78000000D01*
X112500000Y-78000000D02*
X112750000Y-78000000D01*
X112750000Y-78000000D02*
X112750000Y-73500000D01*
X96500000Y-74550100D02*
X96700660Y-74550100D01*
X96500000Y-74550100D02*
X96299340Y-74550100D01*
X96400940Y-72949900D02*
X96299340Y-72949900D01*
X96299340Y-72949900D02*
X96700660Y-72949900D01*
X96500000Y-69949900D02*
X96299340Y-69949900D01*
X96500000Y-69949900D02*
X96700660Y-69949900D01*
X96599060Y-71550100D02*
X96700660Y-71550100D01*
X96700660Y-71550100D02*
X96299340Y-71550100D01*
X96500000Y-76199900D02*
X96299340Y-76199900D01*
X96500000Y-76199900D02*
X96700660Y-76199900D01*
X96599060Y-77800100D02*
X96700660Y-77800100D01*
X96700660Y-77800100D02*
X96299340Y-77800100D01*
X105750000Y-101500000D02*
X105750000Y-108000000D01*
X105750000Y-108000000D02*
X112750000Y-108000000D01*
X112750000Y-108000000D02*
X112750000Y-95000000D01*
X112750000Y-95000000D02*
X105750000Y-95000000D01*
X105750000Y-95000000D02*
X105750000Y-101500000D01*
D10*
X116850000Y-104690000D02*
X116020000Y-104680000D01*
X116860000Y-97520000D02*
X116040000Y-97520000D01*
D11*
X89570000Y-91340000D02*
X89570000Y-88800000D01*
X89570000Y-88800000D02*
X109890000Y-88800000D01*
X109890000Y-88800000D02*
X109890000Y-91340000D01*
X109890000Y-91340000D02*
X89570000Y-91340000D01*
X89570000Y-114200000D02*
X89570000Y-111660000D01*
X89570000Y-111660000D02*
X109890000Y-111660000D01*
X109890000Y-111660000D02*
X109890000Y-114200000D01*
X109890000Y-114200000D02*
X89570000Y-114200000D01*
D10*
X117277228Y-90682528D02*
X117277228Y-96493820D01*
X117277228Y-96493820D02*
X115993795Y-96520151D01*
X115993795Y-96520151D02*
X116000483Y-105351373D01*
X116000483Y-105351373D02*
X117202736Y-105349397D01*
X117202736Y-105349397D02*
X117176658Y-114430193D01*
X117176658Y-114430193D02*
X86006507Y-114416195D01*
X86006507Y-114416195D02*
X85403714Y-114183384D01*
X85403714Y-114183384D02*
X84858833Y-113899901D01*
X84858833Y-113899901D02*
X84372423Y-113565253D01*
X84372423Y-113565253D02*
X83945048Y-113178953D01*
X83945048Y-113178953D02*
X83577259Y-112740512D01*
X83577259Y-112740512D02*
X83269623Y-112249440D01*
X83269623Y-112249440D02*
X83022690Y-111705250D01*
X83022690Y-111705250D02*
X82837024Y-111107453D01*
X82837024Y-111107453D02*
X82808266Y-92069540D01*
X82808266Y-92069540D02*
X83042259Y-91450176D01*
X83042259Y-91450176D02*
X83326742Y-90861982D01*
X83326742Y-90861982D02*
X83676257Y-90318555D01*
X83676257Y-90318555D02*
X84105342Y-89833497D01*
X84105342Y-89833497D02*
X84628540Y-89420405D01*
X84628540Y-89420405D02*
X85260387Y-89092878D01*
X85260387Y-89092878D02*
X86015425Y-88864518D01*
X86015425Y-88864518D02*
X86908193Y-88748922D01*
X86908193Y-88748922D02*
X109463285Y-88723974D01*
X109463285Y-88723974D02*
X110424181Y-90667520D01*
X110424181Y-90667520D02*
X117232524Y-90697314D01*
X116865188Y-97540069D02*
X116865188Y-104679650D01*
X112483738Y-90721122D02*
X112483738Y-90068483D01*
X112483738Y-90068483D02*
X114476932Y-90068483D01*
X114476932Y-90068483D02*
X114476932Y-90685844D01*
D11*
X80500000Y-103500000D02*
G75*
G03X80500000Y-103500000I-2000000J0D01*
G01*
X65500000Y-103500000D02*
G75*
G03X65500000Y-103500000I-2000000J0D01*
G01*
X60500000Y-90500000D02*
X81500000Y-90500000D01*
X81500000Y-90500000D02*
X81500000Y-106500000D01*
X81500000Y-106500000D02*
X60500000Y-106500000D01*
X60500000Y-106500000D02*
X60500000Y-90500000D01*
D13*
X60150000Y-108470000D02*
X60150000Y-112070000D01*
X60161522Y-108431522D02*
G75*
G02X64600000Y-110270000I1838478J-1838478D01*
G01*
X60161522Y-112108478D02*
G75*
G03X64600000Y-110270000I1838478J1838478D01*
G01*
D11*
X112750000Y-101500000D02*
X112750000Y-97000000D01*
X112750000Y-97000000D02*
X108250000Y-97000000D01*
X108250000Y-97000000D02*
X108250000Y-106000000D01*
X108250000Y-106000000D02*
X112500000Y-106000000D01*
X112500000Y-106000000D02*
X112750000Y-106000000D01*
X112750000Y-106000000D02*
X112750000Y-101500000D01*
X96500000Y-102550100D02*
X96700660Y-102550100D01*
X96500000Y-102550100D02*
X96299340Y-102550100D01*
X96400940Y-100949900D02*
X96299340Y-100949900D01*
X96299340Y-100949900D02*
X96700660Y-100949900D01*
X96500000Y-97949900D02*
X96299340Y-97949900D01*
X96500000Y-97949900D02*
X96700660Y-97949900D01*
X96599060Y-99550100D02*
X96700660Y-99550100D01*
X96700660Y-99550100D02*
X96299340Y-99550100D01*
X96500000Y-104199900D02*
X96299340Y-104199900D01*
X96500000Y-104199900D02*
X96700660Y-104199900D01*
X96599060Y-105800100D02*
X96700660Y-105800100D01*
X96700660Y-105800100D02*
X96299340Y-105800100D01*
X44500000Y-58250000D02*
G75*
G03X44500000Y-58250000I-2000000J0D01*
G01*
X44500000Y-43250000D02*
G75*
G03X44500000Y-43250000I-2000000J0D01*
G01*
X55500000Y-40250000D02*
X55500000Y-61250000D01*
X55500000Y-61250000D02*
X39500000Y-61250000D01*
X39500000Y-61250000D02*
X39500000Y-40250000D01*
X39500000Y-40250000D02*
X55500000Y-40250000D01*
D10*
X52700000Y-73200000D02*
X50300000Y-73200000D01*
X50300000Y-73200000D02*
X50300000Y-68200000D01*
X50300000Y-68200000D02*
X52700000Y-68200000D01*
X52700000Y-68200000D02*
X52700000Y-73200000D01*
D11*
X33500000Y-62250000D02*
G75*
G03X33500000Y-62250000I-100000J0D01*
G01*
X33723607Y-62250000D02*
G75*
G03X33723607Y-62250000I-223607J0D01*
G01*
X33600000Y-62250000D02*
G75*
G03X33600000Y-62250000I-100000J0D01*
G01*
X49000000Y-61750000D02*
X49000000Y-78750000D01*
X49000000Y-78750000D02*
X33000000Y-78750000D01*
X33000000Y-78750000D02*
X33000000Y-61750000D01*
X33000000Y-61750000D02*
X49000000Y-61750000D01*
D13*
X33500000Y-50350000D02*
X34500000Y-50350000D01*
X34500000Y-48650000D02*
X33500000Y-48650000D01*
X35650000Y-42400000D02*
X36350000Y-42400000D01*
X36350000Y-43600000D02*
X35650000Y-43600000D01*
X33850000Y-46500000D02*
X33850000Y-45500000D01*
X32150000Y-45500000D02*
X32150000Y-46500000D01*
X33000000Y-51820000D02*
X34000000Y-51820000D01*
X34000000Y-53180000D02*
X33000000Y-53180000D01*
X46850000Y-80570000D02*
X45850000Y-80570000D01*
X45850000Y-79210000D02*
X46850000Y-79210000D01*
X34000000Y-55180000D02*
X33000000Y-55180000D01*
X33000000Y-53820000D02*
X34000000Y-53820000D01*
X37610000Y-46900000D02*
X37610000Y-45100000D01*
X34390000Y-45100000D02*
X34390000Y-47550000D01*
X56350000Y-79530000D02*
X56350000Y-75930000D01*
X56338478Y-79568478D02*
G75*
G02X51900000Y-77730000I-1838478J1838478D01*
G01*
X56338478Y-75891522D02*
G75*
G03X51900000Y-77730000I-1838478J-1838478D01*
G01*
X40250000Y-80500000D02*
X39550000Y-80500000D01*
X39550000Y-79300000D02*
X40250000Y-79300000D01*
X35900000Y-80750000D02*
X36900000Y-80750000D01*
X36900000Y-79050000D02*
X35900000Y-79050000D01*
X33000000Y-55820000D02*
X34000000Y-55820000D01*
X34000000Y-57180000D02*
X33000000Y-57180000D01*
X34000000Y-59180000D02*
X33000000Y-59180000D01*
X33000000Y-57820000D02*
X34000000Y-57820000D01*
X51980000Y-75800000D02*
X51980000Y-76800000D01*
X50620000Y-76800000D02*
X50620000Y-75800000D01*
X55730000Y-63050000D02*
X53070000Y-63050000D01*
X55730000Y-70730000D02*
X55730000Y-63050000D01*
X53070000Y-70730000D02*
X53070000Y-63050000D01*
X55730000Y-70730000D02*
X53070000Y-70730000D01*
X55730000Y-72000000D02*
X55730000Y-73330000D01*
X55730000Y-73330000D02*
X54400000Y-73330000D01*
X34650000Y-61100000D02*
X34650000Y-59900000D01*
X32800000Y-61100000D02*
X34650000Y-61100000D01*
X32800000Y-59900000D02*
X34650000Y-59900000D01*
D11*
X44000000Y-32750000D02*
X39500000Y-32750000D01*
X39500000Y-32750000D02*
X39500000Y-37250000D01*
X39500000Y-37250000D02*
X48500000Y-37250000D01*
X48500000Y-37250000D02*
X48500000Y-33000000D01*
X48500000Y-33000000D02*
X48500000Y-32750000D01*
X48500000Y-32750000D02*
X44000000Y-32750000D01*
X44500000Y-39500000D02*
X51000000Y-39500000D01*
X51000000Y-39500000D02*
X51000000Y-32500000D01*
X51000000Y-32500000D02*
X38000000Y-32500000D01*
X38000000Y-32500000D02*
X38000000Y-39500000D01*
X38000000Y-39500000D02*
X44500000Y-39500000D01*
X114676381Y-56929905D02*
X115485905Y-56929905D01*
X115581143Y-56882286D01*
X115628762Y-56834667D01*
X115676381Y-56739429D01*
X115676381Y-56548952D01*
X115628762Y-56453714D01*
X115581143Y-56406095D01*
X115485905Y-56358476D01*
X114676381Y-56358476D01*
X114676381Y-55977524D02*
X114676381Y-55358476D01*
X115057333Y-55691810D01*
X115057333Y-55548952D01*
X115104952Y-55453714D01*
X115152571Y-55406095D01*
X115247810Y-55358476D01*
X115485905Y-55358476D01*
X115581143Y-55406095D01*
X115628762Y-55453714D01*
X115676381Y-55548952D01*
X115676381Y-55834667D01*
X115628762Y-55929905D01*
X115581143Y-55977524D01*
D13*
X85811905Y-48069048D02*
X86459524Y-48069048D01*
X86535714Y-48030953D01*
X86573810Y-47992857D01*
X86611905Y-47916667D01*
X86611905Y-47764286D01*
X86573810Y-47688095D01*
X86535714Y-47650000D01*
X86459524Y-47611905D01*
X85811905Y-47611905D01*
X86573810Y-47269048D02*
X86611905Y-47154762D01*
X86611905Y-46964286D01*
X86573810Y-46888096D01*
X86535714Y-46850000D01*
X86459524Y-46811905D01*
X86383333Y-46811905D01*
X86307143Y-46850000D01*
X86269048Y-46888096D01*
X86230952Y-46964286D01*
X86192857Y-47116667D01*
X86154762Y-47192858D01*
X86116667Y-47230953D01*
X86040476Y-47269048D01*
X85964286Y-47269048D01*
X85888095Y-47230953D01*
X85850000Y-47192858D01*
X85811905Y-47116667D01*
X85811905Y-46926191D01*
X85850000Y-46811905D01*
X86192857Y-46202381D02*
X86230952Y-46088095D01*
X86269048Y-46050000D01*
X86345238Y-46011905D01*
X86459524Y-46011905D01*
X86535714Y-46050000D01*
X86573810Y-46088095D01*
X86611905Y-46164286D01*
X86611905Y-46469048D01*
X85811905Y-46469048D01*
X85811905Y-46202381D01*
X85850000Y-46126191D01*
X85888095Y-46088095D01*
X85964286Y-46050000D01*
X86040476Y-46050000D01*
X86116667Y-46088095D01*
X86154762Y-46126191D01*
X86192857Y-46202381D01*
X86192857Y-46469048D01*
X86611905Y-44716667D02*
X85811905Y-44716667D01*
X86573810Y-44716667D02*
X86611905Y-44792857D01*
X86611905Y-44945238D01*
X86573810Y-45021429D01*
X86535714Y-45059524D01*
X86459524Y-45097619D01*
X86230952Y-45097619D01*
X86154762Y-45059524D01*
X86116667Y-45021429D01*
X86078571Y-44945238D01*
X86078571Y-44792857D01*
X86116667Y-44716667D01*
X86611905Y-44221428D02*
X86573810Y-44297619D01*
X86535714Y-44335714D01*
X86459524Y-44373809D01*
X86230952Y-44373809D01*
X86154762Y-44335714D01*
X86116667Y-44297619D01*
X86078571Y-44221428D01*
X86078571Y-44107142D01*
X86116667Y-44030952D01*
X86154762Y-43992857D01*
X86230952Y-43954761D01*
X86459524Y-43954761D01*
X86535714Y-43992857D01*
X86573810Y-44030952D01*
X86611905Y-44107142D01*
X86611905Y-44221428D01*
X86078571Y-43688094D02*
X86611905Y-43535713D01*
X86230952Y-43383332D01*
X86611905Y-43230951D01*
X86078571Y-43078570D01*
X86078571Y-42773809D02*
X86611905Y-42773809D01*
X86154762Y-42773809D02*
X86116667Y-42735714D01*
X86078571Y-42659523D01*
X86078571Y-42545237D01*
X86116667Y-42469047D01*
X86192857Y-42430952D01*
X86611905Y-42430952D01*
D11*
X83154762Y-49821429D02*
X85154762Y-49345238D01*
X83726190Y-48964286D01*
X85154762Y-48583333D01*
X83154762Y-48107143D01*
X85059524Y-46583334D02*
X85154762Y-46773810D01*
X85154762Y-47154762D01*
X85059524Y-47345239D01*
X84869048Y-47440477D01*
X84107143Y-47440477D01*
X83916667Y-47345239D01*
X83821429Y-47154762D01*
X83821429Y-46773810D01*
X83916667Y-46583334D01*
X84107143Y-46488096D01*
X84297619Y-46488096D01*
X84488095Y-47440477D01*
X85154762Y-45630953D02*
X83154762Y-45630953D01*
X84583333Y-44964286D01*
X83154762Y-44297619D01*
X85154762Y-44297619D01*
X85154762Y-43059524D02*
X85059524Y-43250000D01*
X84964286Y-43345239D01*
X84773810Y-43440477D01*
X84202381Y-43440477D01*
X84011905Y-43345239D01*
X83916667Y-43250000D01*
X83821429Y-43059524D01*
X83821429Y-42773810D01*
X83916667Y-42583334D01*
X84011905Y-42488096D01*
X84202381Y-42392858D01*
X84773810Y-42392858D01*
X84964286Y-42488096D01*
X85059524Y-42583334D01*
X85154762Y-42773810D01*
X85154762Y-43059524D01*
X85059524Y-41630953D02*
X85154762Y-41440476D01*
X85154762Y-41059524D01*
X85059524Y-40869048D01*
X84869048Y-40773810D01*
X84773810Y-40773810D01*
X84583333Y-40869048D01*
X84488095Y-41059524D01*
X84488095Y-41345238D01*
X84392857Y-41535715D01*
X84202381Y-41630953D01*
X84107143Y-41630953D01*
X83916667Y-41535715D01*
X83821429Y-41345238D01*
X83821429Y-41059524D01*
X83916667Y-40869048D01*
X68285715Y-41500000D02*
X68190477Y-41452381D01*
X68047620Y-41452381D01*
X67904762Y-41500000D01*
X67809524Y-41595238D01*
X67761905Y-41690476D01*
X67714286Y-41880952D01*
X67714286Y-42023810D01*
X67761905Y-42214286D01*
X67809524Y-42309524D01*
X67904762Y-42404762D01*
X68047620Y-42452381D01*
X68142858Y-42452381D01*
X68285715Y-42404762D01*
X68333334Y-42357143D01*
X68333334Y-42023810D01*
X68142858Y-42023810D01*
X68952381Y-41976190D02*
X68952381Y-42452381D01*
X68619048Y-41452381D02*
X68952381Y-41976190D01*
X69285715Y-41452381D01*
X69619048Y-42071429D02*
X70380953Y-42071429D01*
X71333334Y-41452381D02*
X70857143Y-41452381D01*
X70809524Y-41928571D01*
X70857143Y-41880952D01*
X70952381Y-41833333D01*
X71190477Y-41833333D01*
X71285715Y-41880952D01*
X71333334Y-41928571D01*
X71380953Y-42023810D01*
X71380953Y-42261905D01*
X71333334Y-42357143D01*
X71285715Y-42404762D01*
X71190477Y-42452381D01*
X70952381Y-42452381D01*
X70857143Y-42404762D01*
X70809524Y-42357143D01*
X71761905Y-41547619D02*
X71809524Y-41500000D01*
X71904762Y-41452381D01*
X72142858Y-41452381D01*
X72238096Y-41500000D01*
X72285715Y-41547619D01*
X72333334Y-41642857D01*
X72333334Y-41738095D01*
X72285715Y-41880952D01*
X71714286Y-42452381D01*
X72333334Y-42452381D01*
X73285715Y-42452381D02*
X72714286Y-42452381D01*
X73000000Y-42452381D02*
X73000000Y-41452381D01*
X72904762Y-41595238D01*
X72809524Y-41690476D01*
X72714286Y-41738095D01*
X87309524Y-45638095D02*
X87347619Y-45600000D01*
X87423810Y-45561905D01*
X87614286Y-45561905D01*
X87690476Y-45600000D01*
X87728572Y-45638095D01*
X87766667Y-45714286D01*
X87766667Y-45790476D01*
X87728572Y-45904762D01*
X87271429Y-46361905D01*
X87766667Y-46361905D01*
X88071429Y-45638095D02*
X88109524Y-45600000D01*
X88185715Y-45561905D01*
X88376191Y-45561905D01*
X88452381Y-45600000D01*
X88490477Y-45638095D01*
X88528572Y-45714286D01*
X88528572Y-45790476D01*
X88490477Y-45904762D01*
X88033334Y-46361905D01*
X88528572Y-46361905D01*
X89023810Y-45561905D02*
X89100001Y-45561905D01*
X89176191Y-45600000D01*
X89214286Y-45638095D01*
X89252382Y-45714286D01*
X89290477Y-45866667D01*
X89290477Y-46057143D01*
X89252382Y-46209524D01*
X89214286Y-46285714D01*
X89176191Y-46323810D01*
X89100001Y-46361905D01*
X89023810Y-46361905D01*
X88947620Y-46323810D01*
X88909524Y-46285714D01*
X88871429Y-46209524D01*
X88833334Y-46057143D01*
X88833334Y-45866667D01*
X88871429Y-45714286D01*
X88909524Y-45638095D01*
X88947620Y-45600000D01*
X89023810Y-45561905D01*
X89633334Y-46361905D02*
X89633334Y-45561905D01*
X90090477Y-46361905D02*
X89747620Y-45904762D01*
X90090477Y-45561905D02*
X89633334Y-46019048D01*
X88257143Y-42628571D02*
X88257143Y-43161905D01*
X88066667Y-42323810D02*
X87876191Y-42895238D01*
X88371429Y-42895238D01*
X88676191Y-43085714D02*
X88714286Y-43123810D01*
X88676191Y-43161905D01*
X88638096Y-43123810D01*
X88676191Y-43085714D01*
X88676191Y-43161905D01*
X88980953Y-42361905D02*
X89514286Y-42361905D01*
X89171429Y-43161905D01*
X89819048Y-43161905D02*
X89819048Y-42361905D01*
X89895239Y-42857143D02*
X90123810Y-43161905D01*
X90123810Y-42628571D02*
X89819048Y-42933333D01*
X88909524Y-49361905D02*
X88909524Y-48561905D01*
X89100000Y-48561905D01*
X89214286Y-48600000D01*
X89290477Y-48676190D01*
X89328572Y-48752381D01*
X89366667Y-48904762D01*
X89366667Y-49019048D01*
X89328572Y-49171429D01*
X89290477Y-49247619D01*
X89214286Y-49323810D01*
X89100000Y-49361905D01*
X88909524Y-49361905D01*
X90128572Y-49361905D02*
X89671429Y-49361905D01*
X89900000Y-49361905D02*
X89900000Y-48561905D01*
X89823810Y-48676190D01*
X89747619Y-48752381D01*
X89671429Y-48790476D01*
X114676381Y-84929905D02*
X115485905Y-84929905D01*
X115581143Y-84882286D01*
X115628762Y-84834667D01*
X115676381Y-84739429D01*
X115676381Y-84548952D01*
X115628762Y-84453714D01*
X115581143Y-84406095D01*
X115485905Y-84358476D01*
X114676381Y-84358476D01*
X114676381Y-83977524D02*
X114676381Y-83358476D01*
X115057333Y-83691810D01*
X115057333Y-83548952D01*
X115104952Y-83453714D01*
X115152571Y-83406095D01*
X115247810Y-83358476D01*
X115485905Y-83358476D01*
X115581143Y-83406095D01*
X115628762Y-83453714D01*
X115676381Y-83548952D01*
X115676381Y-83834667D01*
X115628762Y-83929905D01*
X115581143Y-83977524D01*
D13*
X85811905Y-76069048D02*
X86459524Y-76069048D01*
X86535714Y-76030953D01*
X86573810Y-75992857D01*
X86611905Y-75916667D01*
X86611905Y-75764286D01*
X86573810Y-75688095D01*
X86535714Y-75650000D01*
X86459524Y-75611905D01*
X85811905Y-75611905D01*
X86573810Y-75269048D02*
X86611905Y-75154762D01*
X86611905Y-74964286D01*
X86573810Y-74888096D01*
X86535714Y-74850000D01*
X86459524Y-74811905D01*
X86383333Y-74811905D01*
X86307143Y-74850000D01*
X86269048Y-74888096D01*
X86230952Y-74964286D01*
X86192857Y-75116667D01*
X86154762Y-75192858D01*
X86116667Y-75230953D01*
X86040476Y-75269048D01*
X85964286Y-75269048D01*
X85888095Y-75230953D01*
X85850000Y-75192858D01*
X85811905Y-75116667D01*
X85811905Y-74926191D01*
X85850000Y-74811905D01*
X86192857Y-74202381D02*
X86230952Y-74088095D01*
X86269048Y-74050000D01*
X86345238Y-74011905D01*
X86459524Y-74011905D01*
X86535714Y-74050000D01*
X86573810Y-74088095D01*
X86611905Y-74164286D01*
X86611905Y-74469048D01*
X85811905Y-74469048D01*
X85811905Y-74202381D01*
X85850000Y-74126191D01*
X85888095Y-74088095D01*
X85964286Y-74050000D01*
X86040476Y-74050000D01*
X86116667Y-74088095D01*
X86154762Y-74126191D01*
X86192857Y-74202381D01*
X86192857Y-74469048D01*
X86611905Y-72716667D02*
X85811905Y-72716667D01*
X86573810Y-72716667D02*
X86611905Y-72792857D01*
X86611905Y-72945238D01*
X86573810Y-73021429D01*
X86535714Y-73059524D01*
X86459524Y-73097619D01*
X86230952Y-73097619D01*
X86154762Y-73059524D01*
X86116667Y-73021429D01*
X86078571Y-72945238D01*
X86078571Y-72792857D01*
X86116667Y-72716667D01*
X86611905Y-72221428D02*
X86573810Y-72297619D01*
X86535714Y-72335714D01*
X86459524Y-72373809D01*
X86230952Y-72373809D01*
X86154762Y-72335714D01*
X86116667Y-72297619D01*
X86078571Y-72221428D01*
X86078571Y-72107142D01*
X86116667Y-72030952D01*
X86154762Y-71992857D01*
X86230952Y-71954761D01*
X86459524Y-71954761D01*
X86535714Y-71992857D01*
X86573810Y-72030952D01*
X86611905Y-72107142D01*
X86611905Y-72221428D01*
X86078571Y-71688094D02*
X86611905Y-71535713D01*
X86230952Y-71383332D01*
X86611905Y-71230951D01*
X86078571Y-71078570D01*
X86078571Y-70773809D02*
X86611905Y-70773809D01*
X86154762Y-70773809D02*
X86116667Y-70735714D01*
X86078571Y-70659523D01*
X86078571Y-70545237D01*
X86116667Y-70469047D01*
X86192857Y-70430952D01*
X86611905Y-70430952D01*
D11*
X83154762Y-77821429D02*
X85154762Y-77345238D01*
X83726190Y-76964286D01*
X85154762Y-76583333D01*
X83154762Y-76107143D01*
X85059524Y-74583334D02*
X85154762Y-74773810D01*
X85154762Y-75154762D01*
X85059524Y-75345239D01*
X84869048Y-75440477D01*
X84107143Y-75440477D01*
X83916667Y-75345239D01*
X83821429Y-75154762D01*
X83821429Y-74773810D01*
X83916667Y-74583334D01*
X84107143Y-74488096D01*
X84297619Y-74488096D01*
X84488095Y-75440477D01*
X85154762Y-73630953D02*
X83154762Y-73630953D01*
X84583333Y-72964286D01*
X83154762Y-72297619D01*
X85154762Y-72297619D01*
X85154762Y-71059524D02*
X85059524Y-71250000D01*
X84964286Y-71345239D01*
X84773810Y-71440477D01*
X84202381Y-71440477D01*
X84011905Y-71345239D01*
X83916667Y-71250000D01*
X83821429Y-71059524D01*
X83821429Y-70773810D01*
X83916667Y-70583334D01*
X84011905Y-70488096D01*
X84202381Y-70392858D01*
X84773810Y-70392858D01*
X84964286Y-70488096D01*
X85059524Y-70583334D01*
X85154762Y-70773810D01*
X85154762Y-71059524D01*
X85059524Y-69630953D02*
X85154762Y-69440476D01*
X85154762Y-69059524D01*
X85059524Y-68869048D01*
X84869048Y-68773810D01*
X84773810Y-68773810D01*
X84583333Y-68869048D01*
X84488095Y-69059524D01*
X84488095Y-69345238D01*
X84392857Y-69535715D01*
X84202381Y-69630953D01*
X84107143Y-69630953D01*
X83916667Y-69535715D01*
X83821429Y-69345238D01*
X83821429Y-69059524D01*
X83916667Y-68869048D01*
X68285715Y-69500000D02*
X68190477Y-69452381D01*
X68047620Y-69452381D01*
X67904762Y-69500000D01*
X67809524Y-69595238D01*
X67761905Y-69690476D01*
X67714286Y-69880952D01*
X67714286Y-70023810D01*
X67761905Y-70214286D01*
X67809524Y-70309524D01*
X67904762Y-70404762D01*
X68047620Y-70452381D01*
X68142858Y-70452381D01*
X68285715Y-70404762D01*
X68333334Y-70357143D01*
X68333334Y-70023810D01*
X68142858Y-70023810D01*
X68952381Y-69976190D02*
X68952381Y-70452381D01*
X68619048Y-69452381D02*
X68952381Y-69976190D01*
X69285715Y-69452381D01*
X69619048Y-70071429D02*
X70380953Y-70071429D01*
X71333334Y-69452381D02*
X70857143Y-69452381D01*
X70809524Y-69928571D01*
X70857143Y-69880952D01*
X70952381Y-69833333D01*
X71190477Y-69833333D01*
X71285715Y-69880952D01*
X71333334Y-69928571D01*
X71380953Y-70023810D01*
X71380953Y-70261905D01*
X71333334Y-70357143D01*
X71285715Y-70404762D01*
X71190477Y-70452381D01*
X70952381Y-70452381D01*
X70857143Y-70404762D01*
X70809524Y-70357143D01*
X71761905Y-69547619D02*
X71809524Y-69500000D01*
X71904762Y-69452381D01*
X72142858Y-69452381D01*
X72238096Y-69500000D01*
X72285715Y-69547619D01*
X72333334Y-69642857D01*
X72333334Y-69738095D01*
X72285715Y-69880952D01*
X71714286Y-70452381D01*
X72333334Y-70452381D01*
X73285715Y-70452381D02*
X72714286Y-70452381D01*
X73000000Y-70452381D02*
X73000000Y-69452381D01*
X72904762Y-69595238D01*
X72809524Y-69690476D01*
X72714286Y-69738095D01*
X87309524Y-73638095D02*
X87347619Y-73600000D01*
X87423810Y-73561905D01*
X87614286Y-73561905D01*
X87690476Y-73600000D01*
X87728572Y-73638095D01*
X87766667Y-73714286D01*
X87766667Y-73790476D01*
X87728572Y-73904762D01*
X87271429Y-74361905D01*
X87766667Y-74361905D01*
X88071429Y-73638095D02*
X88109524Y-73600000D01*
X88185715Y-73561905D01*
X88376191Y-73561905D01*
X88452381Y-73600000D01*
X88490477Y-73638095D01*
X88528572Y-73714286D01*
X88528572Y-73790476D01*
X88490477Y-73904762D01*
X88033334Y-74361905D01*
X88528572Y-74361905D01*
X89023810Y-73561905D02*
X89100001Y-73561905D01*
X89176191Y-73600000D01*
X89214286Y-73638095D01*
X89252382Y-73714286D01*
X89290477Y-73866667D01*
X89290477Y-74057143D01*
X89252382Y-74209524D01*
X89214286Y-74285714D01*
X89176191Y-74323810D01*
X89100001Y-74361905D01*
X89023810Y-74361905D01*
X88947620Y-74323810D01*
X88909524Y-74285714D01*
X88871429Y-74209524D01*
X88833334Y-74057143D01*
X88833334Y-73866667D01*
X88871429Y-73714286D01*
X88909524Y-73638095D01*
X88947620Y-73600000D01*
X89023810Y-73561905D01*
X89633334Y-74361905D02*
X89633334Y-73561905D01*
X90090477Y-74361905D02*
X89747620Y-73904762D01*
X90090477Y-73561905D02*
X89633334Y-74019048D01*
X88257143Y-70628571D02*
X88257143Y-71161905D01*
X88066667Y-70323810D02*
X87876191Y-70895238D01*
X88371429Y-70895238D01*
X88676191Y-71085714D02*
X88714286Y-71123810D01*
X88676191Y-71161905D01*
X88638096Y-71123810D01*
X88676191Y-71085714D01*
X88676191Y-71161905D01*
X88980953Y-70361905D02*
X89514286Y-70361905D01*
X89171429Y-71161905D01*
X89819048Y-71161905D02*
X89819048Y-70361905D01*
X89895239Y-70857143D02*
X90123810Y-71161905D01*
X90123810Y-70628571D02*
X89819048Y-70933333D01*
X88909524Y-77361905D02*
X88909524Y-76561905D01*
X89100000Y-76561905D01*
X89214286Y-76600000D01*
X89290477Y-76676190D01*
X89328572Y-76752381D01*
X89366667Y-76904762D01*
X89366667Y-77019048D01*
X89328572Y-77171429D01*
X89290477Y-77247619D01*
X89214286Y-77323810D01*
X89100000Y-77361905D01*
X88909524Y-77361905D01*
X90128572Y-77361905D02*
X89671429Y-77361905D01*
X89900000Y-77361905D02*
X89900000Y-76561905D01*
X89823810Y-76676190D01*
X89747619Y-76752381D01*
X89671429Y-76790476D01*
X114676381Y-112929905D02*
X115485905Y-112929905D01*
X115581143Y-112882286D01*
X115628762Y-112834667D01*
X115676381Y-112739429D01*
X115676381Y-112548952D01*
X115628762Y-112453714D01*
X115581143Y-112406095D01*
X115485905Y-112358476D01*
X114676381Y-112358476D01*
X114676381Y-111977524D02*
X114676381Y-111358476D01*
X115057333Y-111691810D01*
X115057333Y-111548952D01*
X115104952Y-111453714D01*
X115152571Y-111406095D01*
X115247810Y-111358476D01*
X115485905Y-111358476D01*
X115581143Y-111406095D01*
X115628762Y-111453714D01*
X115676381Y-111548952D01*
X115676381Y-111834667D01*
X115628762Y-111929905D01*
X115581143Y-111977524D01*
D13*
X85811905Y-104069048D02*
X86459524Y-104069048D01*
X86535714Y-104030953D01*
X86573810Y-103992857D01*
X86611905Y-103916667D01*
X86611905Y-103764286D01*
X86573810Y-103688095D01*
X86535714Y-103650000D01*
X86459524Y-103611905D01*
X85811905Y-103611905D01*
X86573810Y-103269048D02*
X86611905Y-103154762D01*
X86611905Y-102964286D01*
X86573810Y-102888096D01*
X86535714Y-102850000D01*
X86459524Y-102811905D01*
X86383333Y-102811905D01*
X86307143Y-102850000D01*
X86269048Y-102888096D01*
X86230952Y-102964286D01*
X86192857Y-103116667D01*
X86154762Y-103192858D01*
X86116667Y-103230953D01*
X86040476Y-103269048D01*
X85964286Y-103269048D01*
X85888095Y-103230953D01*
X85850000Y-103192858D01*
X85811905Y-103116667D01*
X85811905Y-102926191D01*
X85850000Y-102811905D01*
X86192857Y-102202381D02*
X86230952Y-102088095D01*
X86269048Y-102050000D01*
X86345238Y-102011905D01*
X86459524Y-102011905D01*
X86535714Y-102050000D01*
X86573810Y-102088095D01*
X86611905Y-102164286D01*
X86611905Y-102469048D01*
X85811905Y-102469048D01*
X85811905Y-102202381D01*
X85850000Y-102126191D01*
X85888095Y-102088095D01*
X85964286Y-102050000D01*
X86040476Y-102050000D01*
X86116667Y-102088095D01*
X86154762Y-102126191D01*
X86192857Y-102202381D01*
X86192857Y-102469048D01*
X86611905Y-100716667D02*
X85811905Y-100716667D01*
X86573810Y-100716667D02*
X86611905Y-100792857D01*
X86611905Y-100945238D01*
X86573810Y-101021429D01*
X86535714Y-101059524D01*
X86459524Y-101097619D01*
X86230952Y-101097619D01*
X86154762Y-101059524D01*
X86116667Y-101021429D01*
X86078571Y-100945238D01*
X86078571Y-100792857D01*
X86116667Y-100716667D01*
X86611905Y-100221428D02*
X86573810Y-100297619D01*
X86535714Y-100335714D01*
X86459524Y-100373809D01*
X86230952Y-100373809D01*
X86154762Y-100335714D01*
X86116667Y-100297619D01*
X86078571Y-100221428D01*
X86078571Y-100107142D01*
X86116667Y-100030952D01*
X86154762Y-99992857D01*
X86230952Y-99954761D01*
X86459524Y-99954761D01*
X86535714Y-99992857D01*
X86573810Y-100030952D01*
X86611905Y-100107142D01*
X86611905Y-100221428D01*
X86078571Y-99688094D02*
X86611905Y-99535713D01*
X86230952Y-99383332D01*
X86611905Y-99230951D01*
X86078571Y-99078570D01*
X86078571Y-98773809D02*
X86611905Y-98773809D01*
X86154762Y-98773809D02*
X86116667Y-98735714D01*
X86078571Y-98659523D01*
X86078571Y-98545237D01*
X86116667Y-98469047D01*
X86192857Y-98430952D01*
X86611905Y-98430952D01*
D11*
X83154762Y-105821429D02*
X85154762Y-105345238D01*
X83726190Y-104964286D01*
X85154762Y-104583333D01*
X83154762Y-104107143D01*
X85059524Y-102583334D02*
X85154762Y-102773810D01*
X85154762Y-103154762D01*
X85059524Y-103345239D01*
X84869048Y-103440477D01*
X84107143Y-103440477D01*
X83916667Y-103345239D01*
X83821429Y-103154762D01*
X83821429Y-102773810D01*
X83916667Y-102583334D01*
X84107143Y-102488096D01*
X84297619Y-102488096D01*
X84488095Y-103440477D01*
X85154762Y-101630953D02*
X83154762Y-101630953D01*
X84583333Y-100964286D01*
X83154762Y-100297619D01*
X85154762Y-100297619D01*
X85154762Y-99059524D02*
X85059524Y-99250000D01*
X84964286Y-99345239D01*
X84773810Y-99440477D01*
X84202381Y-99440477D01*
X84011905Y-99345239D01*
X83916667Y-99250000D01*
X83821429Y-99059524D01*
X83821429Y-98773810D01*
X83916667Y-98583334D01*
X84011905Y-98488096D01*
X84202381Y-98392858D01*
X84773810Y-98392858D01*
X84964286Y-98488096D01*
X85059524Y-98583334D01*
X85154762Y-98773810D01*
X85154762Y-99059524D01*
X85059524Y-97630953D02*
X85154762Y-97440476D01*
X85154762Y-97059524D01*
X85059524Y-96869048D01*
X84869048Y-96773810D01*
X84773810Y-96773810D01*
X84583333Y-96869048D01*
X84488095Y-97059524D01*
X84488095Y-97345238D01*
X84392857Y-97535715D01*
X84202381Y-97630953D01*
X84107143Y-97630953D01*
X83916667Y-97535715D01*
X83821429Y-97345238D01*
X83821429Y-97059524D01*
X83916667Y-96869048D01*
X68285715Y-97500000D02*
X68190477Y-97452381D01*
X68047620Y-97452381D01*
X67904762Y-97500000D01*
X67809524Y-97595238D01*
X67761905Y-97690476D01*
X67714286Y-97880952D01*
X67714286Y-98023810D01*
X67761905Y-98214286D01*
X67809524Y-98309524D01*
X67904762Y-98404762D01*
X68047620Y-98452381D01*
X68142858Y-98452381D01*
X68285715Y-98404762D01*
X68333334Y-98357143D01*
X68333334Y-98023810D01*
X68142858Y-98023810D01*
X68952381Y-97976190D02*
X68952381Y-98452381D01*
X68619048Y-97452381D02*
X68952381Y-97976190D01*
X69285715Y-97452381D01*
X69619048Y-98071429D02*
X70380953Y-98071429D01*
X71333334Y-97452381D02*
X70857143Y-97452381D01*
X70809524Y-97928571D01*
X70857143Y-97880952D01*
X70952381Y-97833333D01*
X71190477Y-97833333D01*
X71285715Y-97880952D01*
X71333334Y-97928571D01*
X71380953Y-98023810D01*
X71380953Y-98261905D01*
X71333334Y-98357143D01*
X71285715Y-98404762D01*
X71190477Y-98452381D01*
X70952381Y-98452381D01*
X70857143Y-98404762D01*
X70809524Y-98357143D01*
X71761905Y-97547619D02*
X71809524Y-97500000D01*
X71904762Y-97452381D01*
X72142858Y-97452381D01*
X72238096Y-97500000D01*
X72285715Y-97547619D01*
X72333334Y-97642857D01*
X72333334Y-97738095D01*
X72285715Y-97880952D01*
X71714286Y-98452381D01*
X72333334Y-98452381D01*
X73285715Y-98452381D02*
X72714286Y-98452381D01*
X73000000Y-98452381D02*
X73000000Y-97452381D01*
X72904762Y-97595238D01*
X72809524Y-97690476D01*
X72714286Y-97738095D01*
X87309524Y-101638095D02*
X87347619Y-101600000D01*
X87423810Y-101561905D01*
X87614286Y-101561905D01*
X87690476Y-101600000D01*
X87728572Y-101638095D01*
X87766667Y-101714286D01*
X87766667Y-101790476D01*
X87728572Y-101904762D01*
X87271429Y-102361905D01*
X87766667Y-102361905D01*
X88071429Y-101638095D02*
X88109524Y-101600000D01*
X88185715Y-101561905D01*
X88376191Y-101561905D01*
X88452381Y-101600000D01*
X88490477Y-101638095D01*
X88528572Y-101714286D01*
X88528572Y-101790476D01*
X88490477Y-101904762D01*
X88033334Y-102361905D01*
X88528572Y-102361905D01*
X89023810Y-101561905D02*
X89100001Y-101561905D01*
X89176191Y-101600000D01*
X89214286Y-101638095D01*
X89252382Y-101714286D01*
X89290477Y-101866667D01*
X89290477Y-102057143D01*
X89252382Y-102209524D01*
X89214286Y-102285714D01*
X89176191Y-102323810D01*
X89100001Y-102361905D01*
X89023810Y-102361905D01*
X88947620Y-102323810D01*
X88909524Y-102285714D01*
X88871429Y-102209524D01*
X88833334Y-102057143D01*
X88833334Y-101866667D01*
X88871429Y-101714286D01*
X88909524Y-101638095D01*
X88947620Y-101600000D01*
X89023810Y-101561905D01*
X89633334Y-102361905D02*
X89633334Y-101561905D01*
X90090477Y-102361905D02*
X89747620Y-101904762D01*
X90090477Y-101561905D02*
X89633334Y-102019048D01*
X88257143Y-98628571D02*
X88257143Y-99161905D01*
X88066667Y-98323810D02*
X87876191Y-98895238D01*
X88371429Y-98895238D01*
X88676191Y-99085714D02*
X88714286Y-99123810D01*
X88676191Y-99161905D01*
X88638096Y-99123810D01*
X88676191Y-99085714D01*
X88676191Y-99161905D01*
X88980953Y-98361905D02*
X89514286Y-98361905D01*
X89171429Y-99161905D01*
X89819048Y-99161905D02*
X89819048Y-98361905D01*
X89895239Y-98857143D02*
X90123810Y-99161905D01*
X90123810Y-98628571D02*
X89819048Y-98933333D01*
X88909524Y-105361905D02*
X88909524Y-104561905D01*
X89100000Y-104561905D01*
X89214286Y-104600000D01*
X89290477Y-104676190D01*
X89328572Y-104752381D01*
X89366667Y-104904762D01*
X89366667Y-105019048D01*
X89328572Y-105171429D01*
X89290477Y-105247619D01*
X89214286Y-105323810D01*
X89100000Y-105361905D01*
X88909524Y-105361905D01*
X90128572Y-105361905D02*
X89671429Y-105361905D01*
X89900000Y-105361905D02*
X89900000Y-104561905D01*
X89823810Y-104676190D01*
X89747619Y-104752381D01*
X89671429Y-104790476D01*
X46660000Y-52524285D02*
X46612381Y-52619523D01*
X46612381Y-52762380D01*
X46660000Y-52905238D01*
X46755238Y-53000476D01*
X46850476Y-53048095D01*
X47040952Y-53095714D01*
X47183810Y-53095714D01*
X47374286Y-53048095D01*
X47469524Y-53000476D01*
X47564762Y-52905238D01*
X47612381Y-52762380D01*
X47612381Y-52667142D01*
X47564762Y-52524285D01*
X47517143Y-52476666D01*
X47183810Y-52476666D01*
X47183810Y-52667142D01*
X47136190Y-51857619D02*
X47612381Y-51857619D01*
X46612381Y-52190952D02*
X47136190Y-51857619D01*
X46612381Y-51524285D01*
X47231429Y-51190952D02*
X47231429Y-50429047D01*
X46612381Y-49476666D02*
X46612381Y-49952857D01*
X47088571Y-50000476D01*
X47040952Y-49952857D01*
X46993333Y-49857619D01*
X46993333Y-49619523D01*
X47040952Y-49524285D01*
X47088571Y-49476666D01*
X47183810Y-49429047D01*
X47421905Y-49429047D01*
X47517143Y-49476666D01*
X47564762Y-49524285D01*
X47612381Y-49619523D01*
X47612381Y-49857619D01*
X47564762Y-49952857D01*
X47517143Y-50000476D01*
X46707619Y-49048095D02*
X46660000Y-49000476D01*
X46612381Y-48905238D01*
X46612381Y-48667142D01*
X46660000Y-48571904D01*
X46707619Y-48524285D01*
X46802857Y-48476666D01*
X46898095Y-48476666D01*
X47040952Y-48524285D01*
X47612381Y-49095714D01*
X47612381Y-48476666D01*
X47612381Y-47524285D02*
X47612381Y-48095714D01*
X47612381Y-47810000D02*
X46612381Y-47810000D01*
X46755238Y-47905238D01*
X46850476Y-48000476D01*
X46898095Y-48095714D01*
D14*
X52292857Y-67642857D02*
X51092857Y-67642857D01*
X51092857Y-67185714D01*
X51150000Y-67071428D01*
X51207143Y-67014285D01*
X51321429Y-66957142D01*
X51492857Y-66957142D01*
X51607143Y-67014285D01*
X51664286Y-67071428D01*
X51721429Y-67185714D01*
X51721429Y-67642857D01*
X52292857Y-65757142D02*
X51721429Y-66157142D01*
X52292857Y-66442857D02*
X51092857Y-66442857D01*
X51092857Y-65985714D01*
X51150000Y-65871428D01*
X51207143Y-65814285D01*
X51321429Y-65757142D01*
X51492857Y-65757142D01*
X51607143Y-65814285D01*
X51664286Y-65871428D01*
X51721429Y-65985714D01*
X51721429Y-66442857D01*
X51092857Y-65014285D02*
X51092857Y-64785714D01*
X51150000Y-64671428D01*
X51264286Y-64557142D01*
X51492857Y-64500000D01*
X51892857Y-64500000D01*
X52121429Y-64557142D01*
X52235714Y-64671428D01*
X52292857Y-64785714D01*
X52292857Y-65014285D01*
X52235714Y-65128571D01*
X52121429Y-65242857D01*
X51892857Y-65300000D01*
X51492857Y-65300000D01*
X51264286Y-65242857D01*
X51150000Y-65128571D01*
X51092857Y-65014285D01*
X51150000Y-63357142D02*
X51092857Y-63471428D01*
X51092857Y-63642857D01*
X51150000Y-63814285D01*
X51264286Y-63928571D01*
X51378571Y-63985714D01*
X51607143Y-64042857D01*
X51778571Y-64042857D01*
X52007143Y-63985714D01*
X52121429Y-63928571D01*
X52235714Y-63814285D01*
X52292857Y-63642857D01*
X52292857Y-63528571D01*
X52235714Y-63357142D01*
X52178571Y-63299999D01*
X51778571Y-63299999D01*
X51778571Y-63528571D01*
D11*
X40418571Y-74258095D02*
X40418571Y-73924761D01*
X40942381Y-73781904D02*
X40942381Y-74258095D01*
X39942381Y-74258095D01*
X39942381Y-73781904D01*
X40894762Y-73400952D02*
X40942381Y-73258095D01*
X40942381Y-73019999D01*
X40894762Y-72924761D01*
X40847143Y-72877142D01*
X40751905Y-72829523D01*
X40656667Y-72829523D01*
X40561429Y-72877142D01*
X40513810Y-72924761D01*
X40466190Y-73019999D01*
X40418571Y-73210476D01*
X40370952Y-73305714D01*
X40323333Y-73353333D01*
X40228095Y-73400952D01*
X40132857Y-73400952D01*
X40037619Y-73353333D01*
X39990000Y-73305714D01*
X39942381Y-73210476D01*
X39942381Y-72972380D01*
X39990000Y-72829523D01*
X40942381Y-72400952D02*
X39942381Y-72400952D01*
X39942381Y-72019999D01*
X39990000Y-71924761D01*
X40037619Y-71877142D01*
X40132857Y-71829523D01*
X40275714Y-71829523D01*
X40370952Y-71877142D01*
X40418571Y-71924761D01*
X40466190Y-72019999D01*
X40466190Y-72400952D01*
X40561429Y-71400952D02*
X40561429Y-70639047D01*
X39942381Y-69972381D02*
X39942381Y-69877142D01*
X39990000Y-69781904D01*
X40037619Y-69734285D01*
X40132857Y-69686666D01*
X40323333Y-69639047D01*
X40561429Y-69639047D01*
X40751905Y-69686666D01*
X40847143Y-69734285D01*
X40894762Y-69781904D01*
X40942381Y-69877142D01*
X40942381Y-69972381D01*
X40894762Y-70067619D01*
X40847143Y-70115238D01*
X40751905Y-70162857D01*
X40561429Y-70210476D01*
X40323333Y-70210476D01*
X40132857Y-70162857D01*
X40037619Y-70115238D01*
X39990000Y-70067619D01*
X39942381Y-69972381D01*
X39942381Y-69305714D02*
X39942381Y-68639047D01*
X40942381Y-69067619D01*
X40894762Y-68305714D02*
X40942381Y-68162857D01*
X40942381Y-67924761D01*
X40894762Y-67829523D01*
X40847143Y-67781904D01*
X40751905Y-67734285D01*
X40656667Y-67734285D01*
X40561429Y-67781904D01*
X40513810Y-67829523D01*
X40466190Y-67924761D01*
X40418571Y-68115238D01*
X40370952Y-68210476D01*
X40323333Y-68258095D01*
X40228095Y-68305714D01*
X40132857Y-68305714D01*
X40037619Y-68258095D01*
X39990000Y-68210476D01*
X39942381Y-68115238D01*
X39942381Y-67877142D01*
X39990000Y-67734285D01*
D10*
X36183333Y-50716667D02*
X36150000Y-50683333D01*
X36116667Y-50616667D01*
X36116667Y-50450000D01*
X36150000Y-50383333D01*
X36183333Y-50350000D01*
X36250000Y-50316667D01*
X36316667Y-50316667D01*
X36416667Y-50350000D01*
X36816667Y-50750000D01*
X36816667Y-50316667D01*
X36750000Y-50016666D02*
X36783333Y-49983333D01*
X36816667Y-50016666D01*
X36783333Y-50050000D01*
X36750000Y-50016666D01*
X36816667Y-50016666D01*
X36183333Y-49716667D02*
X36150000Y-49683333D01*
X36116667Y-49616667D01*
X36116667Y-49450000D01*
X36150000Y-49383333D01*
X36183333Y-49350000D01*
X36250000Y-49316667D01*
X36316667Y-49316667D01*
X36416667Y-49350000D01*
X36816667Y-49750000D01*
X36816667Y-49316667D01*
X36350000Y-48716666D02*
X36816667Y-48716666D01*
X36350000Y-49016666D02*
X36716667Y-49016666D01*
X36783333Y-48983333D01*
X36816667Y-48916666D01*
X36816667Y-48816666D01*
X36783333Y-48750000D01*
X36750000Y-48716666D01*
X36350000Y-48483333D02*
X36350000Y-48216667D01*
X36816667Y-48383333D02*
X36216667Y-48383333D01*
X36150000Y-48350000D01*
X36116667Y-48283333D01*
X36116667Y-48216667D01*
X35940000Y-41740000D02*
X36406667Y-41740000D01*
X35673333Y-41906667D02*
X36173333Y-42073334D01*
X36173333Y-41640000D01*
X35706667Y-41440000D02*
X35706667Y-40973333D01*
X36406667Y-41273333D01*
X35706667Y-40573333D02*
X35706667Y-40506666D01*
X35740000Y-40440000D01*
X35773333Y-40406666D01*
X35840000Y-40373333D01*
X35973333Y-40340000D01*
X36140000Y-40340000D01*
X36273333Y-40373333D01*
X36340000Y-40406666D01*
X36373333Y-40440000D01*
X36406667Y-40506666D01*
X36406667Y-40573333D01*
X36373333Y-40640000D01*
X36340000Y-40673333D01*
X36273333Y-40706666D01*
X36140000Y-40740000D01*
X35973333Y-40740000D01*
X35840000Y-40706666D01*
X35773333Y-40673333D01*
X35740000Y-40640000D01*
X35706667Y-40573333D01*
X35940000Y-40039999D02*
X36640000Y-40039999D01*
X35973333Y-40039999D02*
X35940000Y-39973333D01*
X35940000Y-39839999D01*
X35973333Y-39773333D01*
X36006667Y-39739999D01*
X36073333Y-39706666D01*
X36273333Y-39706666D01*
X36340000Y-39739999D01*
X36373333Y-39773333D01*
X36406667Y-39839999D01*
X36406667Y-39973333D01*
X36373333Y-40039999D01*
X32683333Y-43716667D02*
X32650000Y-43683333D01*
X32616667Y-43616667D01*
X32616667Y-43450000D01*
X32650000Y-43383333D01*
X32683333Y-43350000D01*
X32750000Y-43316667D01*
X32816667Y-43316667D01*
X32916667Y-43350000D01*
X33316667Y-43750000D01*
X33316667Y-43316667D01*
X33250000Y-43016666D02*
X33283333Y-42983333D01*
X33316667Y-43016666D01*
X33283333Y-43050000D01*
X33250000Y-43016666D01*
X33316667Y-43016666D01*
X32683333Y-42716667D02*
X32650000Y-42683333D01*
X32616667Y-42616667D01*
X32616667Y-42450000D01*
X32650000Y-42383333D01*
X32683333Y-42350000D01*
X32750000Y-42316667D01*
X32816667Y-42316667D01*
X32916667Y-42350000D01*
X33316667Y-42750000D01*
X33316667Y-42316667D01*
X32850000Y-41716666D02*
X33316667Y-41716666D01*
X32850000Y-42016666D02*
X33216667Y-42016666D01*
X33283333Y-41983333D01*
X33316667Y-41916666D01*
X33316667Y-41816666D01*
X33283333Y-41750000D01*
X33250000Y-41716666D01*
X32850000Y-41483333D02*
X32850000Y-41216667D01*
X33316667Y-41383333D02*
X32716667Y-41383333D01*
X32650000Y-41350000D01*
X32616667Y-41283333D01*
X32616667Y-41216667D01*
X35100000Y-52800000D02*
X35566667Y-52800000D01*
X34833333Y-52966667D02*
X35333333Y-53133334D01*
X35333333Y-52700000D01*
X34866667Y-52500000D02*
X34866667Y-52033333D01*
X35566667Y-52333333D01*
X35566667Y-51766666D02*
X34866667Y-51766666D01*
X35566667Y-51366666D02*
X35166667Y-51666666D01*
X34866667Y-51366666D02*
X35266667Y-51766666D01*
X48030000Y-79730000D02*
X48030000Y-80196667D01*
X47863333Y-79463333D02*
X47696666Y-79963333D01*
X48130000Y-79963333D01*
X48396667Y-80130000D02*
X48430000Y-80163333D01*
X48396667Y-80196667D01*
X48363333Y-80163333D01*
X48396667Y-80130000D01*
X48396667Y-80196667D01*
X48663333Y-79496667D02*
X49130000Y-79496667D01*
X48830000Y-80196667D01*
X49396667Y-80196667D02*
X49396667Y-79496667D01*
X49463333Y-79930000D02*
X49663333Y-80196667D01*
X49663333Y-79730000D02*
X49396667Y-79996667D01*
X35566667Y-54983334D02*
X35566667Y-55383334D01*
X35566667Y-55183334D02*
X34866667Y-55183334D01*
X34966667Y-55250000D01*
X35033333Y-55316667D01*
X35066667Y-55383334D01*
X34866667Y-54550000D02*
X34866667Y-54483333D01*
X34900000Y-54416667D01*
X34933333Y-54383333D01*
X35000000Y-54350000D01*
X35133333Y-54316667D01*
X35300000Y-54316667D01*
X35433333Y-54350000D01*
X35500000Y-54383333D01*
X35533333Y-54416667D01*
X35566667Y-54483333D01*
X35566667Y-54550000D01*
X35533333Y-54616667D01*
X35500000Y-54650000D01*
X35433333Y-54683333D01*
X35300000Y-54716667D01*
X35133333Y-54716667D01*
X35000000Y-54683333D01*
X34933333Y-54650000D01*
X34900000Y-54616667D01*
X34866667Y-54550000D01*
X35566667Y-54016666D02*
X34866667Y-54016666D01*
X35566667Y-53616666D02*
X35166667Y-53916666D01*
X34866667Y-53616666D02*
X35266667Y-54016666D01*
X41816666Y-80316667D02*
X41416666Y-80316667D01*
X41616666Y-80316667D02*
X41616666Y-79616667D01*
X41550000Y-79716667D01*
X41483333Y-79783333D01*
X41416666Y-79816667D01*
X42250000Y-79616667D02*
X42316667Y-79616667D01*
X42383333Y-79650000D01*
X42416667Y-79683333D01*
X42450000Y-79750000D01*
X42483333Y-79883333D01*
X42483333Y-80050000D01*
X42450000Y-80183333D01*
X42416667Y-80250000D01*
X42383333Y-80283333D01*
X42316667Y-80316667D01*
X42250000Y-80316667D01*
X42183333Y-80283333D01*
X42150000Y-80250000D01*
X42116667Y-80183333D01*
X42083333Y-80050000D01*
X42083333Y-79883333D01*
X42116667Y-79750000D01*
X42150000Y-79683333D01*
X42183333Y-79650000D01*
X42250000Y-79616667D01*
X42916667Y-79616667D02*
X42983334Y-79616667D01*
X43050000Y-79650000D01*
X43083334Y-79683333D01*
X43116667Y-79750000D01*
X43150000Y-79883333D01*
X43150000Y-80050000D01*
X43116667Y-80183333D01*
X43083334Y-80250000D01*
X43050000Y-80283333D01*
X42983334Y-80316667D01*
X42916667Y-80316667D01*
X42850000Y-80283333D01*
X42816667Y-80250000D01*
X42783334Y-80183333D01*
X42750000Y-80050000D01*
X42750000Y-79883333D01*
X42783334Y-79750000D01*
X42816667Y-79683333D01*
X42850000Y-79650000D01*
X42916667Y-79616667D01*
X43450001Y-79850000D02*
X43450001Y-80316667D01*
X43450001Y-79916667D02*
X43483334Y-79883333D01*
X43550001Y-79850000D01*
X43650001Y-79850000D01*
X43716667Y-79883333D01*
X43750001Y-79950000D01*
X43750001Y-80316667D01*
X32850000Y-80116667D02*
X32450000Y-80116667D01*
X32650000Y-80116667D02*
X32650000Y-79416667D01*
X32583334Y-79516667D01*
X32516667Y-79583333D01*
X32450000Y-79616667D01*
X33283334Y-79416667D02*
X33350001Y-79416667D01*
X33416667Y-79450000D01*
X33450001Y-79483333D01*
X33483334Y-79550000D01*
X33516667Y-79683333D01*
X33516667Y-79850000D01*
X33483334Y-79983333D01*
X33450001Y-80050000D01*
X33416667Y-80083333D01*
X33350001Y-80116667D01*
X33283334Y-80116667D01*
X33216667Y-80083333D01*
X33183334Y-80050000D01*
X33150001Y-79983333D01*
X33116667Y-79850000D01*
X33116667Y-79683333D01*
X33150001Y-79550000D01*
X33183334Y-79483333D01*
X33216667Y-79450000D01*
X33283334Y-79416667D01*
X34116668Y-79650000D02*
X34116668Y-80116667D01*
X33816668Y-79650000D02*
X33816668Y-80016667D01*
X33850001Y-80083333D01*
X33916668Y-80116667D01*
X34016668Y-80116667D01*
X34083334Y-80083333D01*
X34116668Y-80050000D01*
X34350001Y-79650000D02*
X34616667Y-79650000D01*
X34450001Y-80116667D02*
X34450001Y-79516667D01*
X34483334Y-79450000D01*
X34550001Y-79416667D01*
X34616667Y-79416667D01*
X35566667Y-56983334D02*
X35566667Y-57383334D01*
X35566667Y-57183334D02*
X34866667Y-57183334D01*
X34966667Y-57250000D01*
X35033333Y-57316667D01*
X35066667Y-57383334D01*
X34866667Y-56550000D02*
X34866667Y-56483333D01*
X34900000Y-56416667D01*
X34933333Y-56383333D01*
X35000000Y-56350000D01*
X35133333Y-56316667D01*
X35300000Y-56316667D01*
X35433333Y-56350000D01*
X35500000Y-56383333D01*
X35533333Y-56416667D01*
X35566667Y-56483333D01*
X35566667Y-56550000D01*
X35533333Y-56616667D01*
X35500000Y-56650000D01*
X35433333Y-56683333D01*
X35300000Y-56716667D01*
X35133333Y-56716667D01*
X35000000Y-56683333D01*
X34933333Y-56650000D01*
X34900000Y-56616667D01*
X34866667Y-56550000D01*
X35566667Y-56016666D02*
X34866667Y-56016666D01*
X35566667Y-55616666D02*
X35166667Y-55916666D01*
X34866667Y-55616666D02*
X35266667Y-56016666D01*
X35566667Y-58983334D02*
X35566667Y-59383334D01*
X35566667Y-59183334D02*
X34866667Y-59183334D01*
X34966667Y-59250000D01*
X35033333Y-59316667D01*
X35066667Y-59383334D01*
X34866667Y-58550000D02*
X34866667Y-58483333D01*
X34900000Y-58416667D01*
X34933333Y-58383333D01*
X35000000Y-58350000D01*
X35133333Y-58316667D01*
X35300000Y-58316667D01*
X35433333Y-58350000D01*
X35500000Y-58383333D01*
X35533333Y-58416667D01*
X35566667Y-58483333D01*
X35566667Y-58550000D01*
X35533333Y-58616667D01*
X35500000Y-58650000D01*
X35433333Y-58683333D01*
X35300000Y-58716667D01*
X35133333Y-58716667D01*
X35000000Y-58683333D01*
X34933333Y-58650000D01*
X34900000Y-58616667D01*
X34866667Y-58550000D01*
X35566667Y-58016666D02*
X34866667Y-58016666D01*
X35566667Y-57616666D02*
X35166667Y-57916666D01*
X34866667Y-57616666D02*
X35266667Y-58016666D01*
X51516667Y-79083334D02*
X51516667Y-79483334D01*
X51516667Y-79283334D02*
X50816667Y-79283334D01*
X50916667Y-79350000D01*
X50983333Y-79416667D01*
X51016667Y-79483334D01*
X50816667Y-78650000D02*
X50816667Y-78583333D01*
X50850000Y-78516667D01*
X50883333Y-78483333D01*
X50950000Y-78450000D01*
X51083333Y-78416667D01*
X51250000Y-78416667D01*
X51383333Y-78450000D01*
X51450000Y-78483333D01*
X51483333Y-78516667D01*
X51516667Y-78583333D01*
X51516667Y-78650000D01*
X51483333Y-78716667D01*
X51450000Y-78750000D01*
X51383333Y-78783333D01*
X51250000Y-78816667D01*
X51083333Y-78816667D01*
X50950000Y-78783333D01*
X50883333Y-78750000D01*
X50850000Y-78716667D01*
X50816667Y-78650000D01*
X51516667Y-78116666D02*
X50816667Y-78116666D01*
X51516667Y-77716666D02*
X51116667Y-78016666D01*
X50816667Y-77716666D02*
X51216667Y-78116666D01*
D11*
X42683333Y-36823810D02*
X42797619Y-36861905D01*
X42988095Y-36861905D01*
X43064285Y-36823810D01*
X43102381Y-36785714D01*
X43140476Y-36709524D01*
X43140476Y-36633333D01*
X43102381Y-36557143D01*
X43064285Y-36519048D01*
X42988095Y-36480952D01*
X42835714Y-36442857D01*
X42759523Y-36404762D01*
X42721428Y-36366667D01*
X42683333Y-36290476D01*
X42683333Y-36214286D01*
X42721428Y-36138095D01*
X42759523Y-36100000D01*
X42835714Y-36061905D01*
X43026190Y-36061905D01*
X43140476Y-36100000D01*
X43407143Y-36061905D02*
X43597619Y-36861905D01*
X43750000Y-36290476D01*
X43902381Y-36861905D01*
X44092857Y-36061905D01*
X44816667Y-36861905D02*
X44359524Y-36861905D01*
X44588095Y-36861905D02*
X44588095Y-36061905D01*
X44511905Y-36176190D01*
X44435714Y-36252381D01*
X44359524Y-36290476D01*
M02*
